<svg xmlns="http://www.w3.org/2000/svg" viewBox="0 0 512 512" fill="#333333">
  <path d="M136 210c-24.8 0-45 20.2-45 45v122c0 24.8 20.2 45 45 45 24.8 0 45-20.2 45-45V255C181 230.2 160.8 210 136 210z"/>
  <path d="M61 255c0-4.3 0.6-8.5 1.3-12.6C44.2 248.2 31 265 31 285v62c0 20 13.2 36.8 31.3 42.6C61.6 385.5 61 381.3 61 377V255z"/>
  <path d="M376 210c-24.8 0-45 20.2-45 45v122c0 24.8 20.2 45 45 45 4.5 0 8.8-0.9 12.9-2.1C383.3 438.4 366.3 452 346 452h-47.8c-6.2-17.4-22.7-30-42.2-30 -24.8 0-45 20.2-45 45 0 24.8 20.2 45 45 45 19.5 0 36-12.6 42.2-30H346c41.4 0 75-33.6 75-75v-30V255C421 230.2 400.8 210 376 210z"/>
  <path d="M449.7 242.4C450.4 246.5 451 250.7 451 255v122c0 4.3-0.6 8.5-1.3 12.6C467.8 383.8 481 367 481 347v-62C481 265 467.8 248.2 449.7 242.4z"/>
  <path d="M256 0C131.9 0 31 100.9 31 225v0.4c8.9-6.8 19.3-11.7 30.7-13.9C68.7 110.3 153.1 30 256 30s187.3 80.3 194.3 181.4c11.4 2.2 21.7 7.2 30.7 13.9V225C481 100.9 380.1 0 256 0z"/>
</svg>