<svg height="512pt" viewBox="-48 0 512 512" width="512pt" xmlns="http://www.w3.org/2000/svg"><path d="m296 464h-16v-16h16zm-32 0h-16v-16h16zm-32 0h-16v-16h16zm-32 0h-16v-16h16zm-32 0h-16v-16h16zm0 0"/><path d="m128 144h48v-96h-48zm16-80h16v64h-16zm0 0"/><path d="m192 144h48v-112h-48zm16-96h16v80h-16zm0 0"/><path d="m256 144h48v-96h-48zm16-80h16v64h-16zm0 0"/><path d="m320 144h48v-112h-48zm16-96h16v80h-16zm0 0"/><path d="m392 0h-288c-13.253906 0-24 10.746094-24 24v139.273438l-67.566406 37.160156c-7.671875 4.21875-12.433594 12.277344-12.433594 21.03125v66.535156h32v40.367188l-32 28v131.632812c0 13.253906 10.746094 24 24 24h368c13.253906 0 24-10.746094 24-24v-464c0-13.253906-10.746094-24-24-24zm-56 496h-224v-72c0-4.417969 3.582031-8 8-8h208c4.417969 0 8 3.582031 8 8zm64-8c0 4.417969-3.582031 8-8 8h-40v-72c0-13.253906-10.746094-24-24-24h-208c-13.253906 0-24 10.746094-24 24v72h-72c-4.417969 0-8-3.582031-8-8v-124.367188l32-28v-63.632812h-32v-50.535156c-.003906-2.921875 1.585938-5.609375 4.144531-7.015625l75.855469-41.722657v-148.726562c0-4.417969 3.582031-8 8-8h288c4.417969 0 8 3.582031 8 8zm0 0"/></svg>