<svg id="Layer_1" enable-background="new 0 0 512.002 512.002" height="512" viewBox="0 0 512.002 512.002" width="512" xmlns="http://www.w3.org/2000/svg"><g><path d="m197.138 248.964-10.634-4.404c-2.361-.978-4.208-2.836-5.2-5.231-3.403-7.76 4.861-15.923 12.587-12.6 0 0 5.317 2.202 5.317 2.202 12.417 4.625 19.712-12.957 7.654-18.478 0 0-5.318-2.203-5.318-2.203-24.217-10.043-48.848 14.468-38.718 38.732 5.35 12.806 14.917 15.691 26.659 20.46 4.916 2.036 7.258 7.693 5.222 12.61-1.862 4.788-7.905 7.294-12.608 5.223 0 0-5.317-2.203-5.317-2.203-5.1-2.113-10.952.309-13.066 5.412-2.114 5.102.309 10.952 5.412 13.066l5.318 2.203c14.572 6.386 32.961-1.24 38.739-16.048 6.256-15.105-.943-32.484-16.047-38.741z"/><path d="m258.91 248.964-10.634-4.404c-2.361-.978-4.208-2.836-5.2-5.231-3.402-7.762 4.86-15.921 12.586-12.601 0 0 5.317 2.203 5.317 2.203 12.416 4.625 19.712-12.956 7.654-18.477 0 0-5.317-2.204-5.317-2.204-14.551-6.386-32.97 1.239-38.739 16.048-6.388 14.551 1.239 32.967 16.046 38.739 0 0 10.635 4.405 10.635 4.405 4.916 2.036 7.258 7.692 5.222 12.609-2.035 4.916-7.693 7.259-12.608 5.223 0 0-5.317-2.203-5.317-2.203-5.1-2.113-10.952.309-13.066 5.412-2.114 5.102.309 10.952 5.412 13.066 0 0 5.318 2.203 5.318 2.203 36.847 13.517 58.5-38.068 22.691-54.788z"/><path d="m321.449 206.001h-20c-5.522 0-10 4.477-10 10v80c0 5.523 4.478 10 10 10h20c16.542 0 29.999-13.458 29.999-30v-40c0-16.542-13.457-30-29.999-30zm9.999 70c0 5.514-4.485 10-9.999 10h-10v-60h10c5.514 0 9.999 4.486 9.999 10z"/><path d="m361.002 166.001h-210c-16.542 0-30 13.458-30 30v120c0 16.542 13.458 30 30 30h210c16.542 0 29.999-13.458 29.999-30v-120c0-16.542-13.457-30-29.999-30zm9.999 150c0 5.514-4.485 10-9.999 10h-210c-5.514 0-10-4.486-10-10v-120c0-5.514 4.486-10 10-10h210c5.514 0 9.999 4.486 9.999 10z"/><path d="m416.002 0h-320c-16.542 0-30 13.458-30 30v452.002c0 16.542 13.458 30 30 30h320c16.541 0 29.999-13.458 29.999-30v-452.002c0-16.542-13.458-30-29.999-30zm-320.001 20h320c5.514 0 9.999 4.486 9.999 10v30h-340v-30c.001-5.514 4.487-10 10.001-10zm275 472.002h-30v-40h20.001c5.514 0 9.999 4.486 9.999 10zm-50 0h-30v-40h30zm-50 0h-30v-40h30zm-50 0h-30v-40h30zm-50 0h-30v-30.001c0-5.514 4.486-10 10-10h20zm245.001 0h-25.001v-30.001c0-16.542-13.457-30-29.999-30h-210c-16.542 0-30 13.458-30 30v30.001h-25c-5.514 0-10-4.486-10-10v-402.002h340v402.002c-.001 5.514-4.487 10-10 10z"/></g></svg>