<svg height="512pt" viewBox="-144 0 512 512" width="512pt" xmlns="http://www.w3.org/2000/svg"><path d="m80 32h16v64h-16zm0 0"/><path d="m128 32h16v64h-16zm0 0"/><path d="m192 112v-112h-160v112h-32v400h224v-400zm-144-96h128v96h-128zm160 480h-192v-368h192zm0 0"/><path d="m48 318.527344v46.746094l56 24v28.199218c-11.019531 3.894532-17.632812 15.164063-15.65625 26.683594 1.976562 11.523438 11.96875 19.941406 23.65625 19.941406s21.679688-8.417968 23.65625-19.941406c1.976562-11.519531-4.636719-22.789062-15.65625-26.683594v-57.984375l56-52v-35.488281h16v-48h-48v48h16v28.503906l-40 37.152344v-147.65625l15.65625 15.65625 11.3125-11.3125-34.96875-34.96875-34.96875 34.96875 11.3125 11.3125 15.65625-15.65625v181.871094l-40-17.144532v-36.199218c11.019531-3.894532 17.632812-15.164063 15.65625-26.683594-1.976562-11.523438-11.96875-19.941406-23.65625-19.941406s-21.679688 8.417968-23.65625 19.941406c-1.976562 11.519531 4.636719 22.789062 15.65625 26.683594zm112-78.527344h16v16h-16zm-48 192c4.417969 0 8 3.582031 8 8s-3.582031 8-8 8-8-3.582031-8-8 3.582031-8 8-8zm-56-144c4.417969 0 8 3.582031 8 8s-3.582031 8-8 8-8-3.582031-8-8 3.582031-8 8-8zm0 0"/></svg>