<svg height="512" viewBox="0 0 64 64" width="512" xmlns="http://www.w3.org/2000/svg"><g id="SD_card" data-name="SD card"><path d="m59 9h-54a3 3 0 0 0 -3 3v40a3 3 0 0 0 3 3h19a1 1 0 0 0 .948-.684l1.773-5.316h4.279v5a1 1 0 0 0 1 1h7a1 1 0 0 0 .759-.349l5.701-6.651h13.54a3 3 0 0 0 3-3v-33a3 3 0 0 0 -3-3zm1 3v14h-50.188a78.717 78.717 0 0 0 -2.512-15h51.7a1 1 0 0 1 1 1zm-55-1h.233a76.831 76.831 0 0 1 2.573 15h-3.806v-14a1 1 0 0 1 1-1zm-1 41v-24h3.916c.058 1.329.095 2.66.084 3.992-.07 8.88-.891 15.219-2.729 21.008h-.271a1 1 0 0 1 -1-1zm55-6h-14a1 1 0 0 0 -.759.349l-5.701 6.651h-5.54v-5a1 1 0 0 0 -1-1h-6a1 1 0 0 0 -.948.684l-1.773 5.316h-15.913c1.77-5.824 2.565-12.207 2.634-20.992.011-1.338-.025-2.674-.083-4.008h50.083v17a1 1 0 0 1 -1 1z"/><path d="m15 21h30a1 1 0 0 0 1-1v-6a1 1 0 0 0 -1-1h-30a1 1 0 0 0 -1 1v6a1 1 0 0 0 1 1zm1-6h28v4h-28z"/><path d="m20 49h-4v-5h-2v6a1 1 0 0 0 1 1h6a1 1 0 0 0 1-1v-6h-2z"/><path d="m29 30h-14a1 1 0 0 0 -1 1v10a1 1 0 0 0 1 1h14a1 1 0 0 0 1-1v-10a1 1 0 0 0 -1-1zm-1 10h-12v-8h12z"/><path d="m14 22h2v2h-2z"/><path d="m18 22h28v2h-28z"/><path d="m56 34h2v2h-2z"/><path d="m42 34h12v2h-12z"/><path d="m38 34h2v2h-2z"/><path d="m56 30h2v2h-2z"/><path d="m42 30h12v2h-12z"/><path d="m38 30h2v2h-2z"/><path d="m56 38h2v2h-2z"/><path d="m42 38h12v2h-12z"/><path d="m38 38h2v2h-2z"/><path d="m56 42h2v2h-2z"/><path d="m42 42h12v2h-12z"/><path d="m38 42h2v2h-2z"/></g></svg>