<svg height="512pt" viewBox="-66 0 512 512" width="512pt" xmlns="http://www.w3.org/2000/svg"><path d="m365 0h-300c-8.285156 0-15 6.714844-15 15v170.507812l-42.71875 25.628907c-4.515625 2.710937-7.28125 7.59375-7.28125 12.863281v80c0 8.285156 6.714844 15 15 15h15c11.027344 0 20 8.972656 20 20s-8.972656 20-20 20h-15c-8.285156 0-15 6.714844-15 15v123c0 8.285156 6.714844 15 15 15h350c8.285156 0 15-6.714844 15-15v-482c0-8.285156-6.714844-15-15-15zm-15 482h-320v-93c27.570312 0 50-22.429688 50-50s-22.429688-50-50-50v-56.507812l42.71875-25.628907c4.515625-2.710937 7.28125-7.59375 7.28125-12.863281v-164h30v75c0 8.285156 6.714844 15 15 15s15-6.714844 15-15v-75h30v75c0 8.285156 6.714844 15 15 15s15-6.714844 15-15v-75h30v75c0 8.285156 6.714844 15 15 15s15-6.714844 15-15v-75h30v75c0 8.285156 6.714844 15 15 15s15-6.714844 15-15v-75h30zm0 0"/></svg>