<svg width="35" height="35" viewBox="0 0 35 35" fill="none" xmlns="http://www.w3.org/2000/svg">
<path d="M28.9065 0H21.5833H13.4167H6.0935L0 9.74925V35H13.4167H21.5833H35V9.74925L28.9065 0ZM28.2602 1.16667L33.3643 9.33333H21.5833V1.16667H28.2602ZM17.5 1.16667H20.4167V9.33333H17.5H14.5833V1.16667H17.5ZM19.7925 13.7993C19.7102 13.5765 19.5008 13.4167 19.25 13.4167C18.928 13.4167 18.6667 13.678 18.6667 14C18.6667 14.2508 18.8265 14.4602 19.0493 14.5425L18.0431 15.5487C17.9602 15.3265 17.7508 15.1667 17.5 15.1667C17.2492 15.1667 17.0397 15.3265 16.9575 15.5493L15.9512 14.5431C16.1735 14.4602 16.3333 14.2508 16.3333 14C16.3333 13.678 16.072 13.4167 15.75 13.4167C15.4992 13.4167 15.2897 13.5765 15.2075 13.7993L15.1667 13.7585L14.5833 14.3418V10.5H15.1667C15.1667 10.822 15.428 11.0833 15.75 11.0833C16.072 11.0833 16.3333 10.822 16.3333 10.5H18.6667C18.6667 10.822 18.928 11.0833 19.25 11.0833C19.572 11.0833 19.8333 10.822 19.8333 10.5H20.4167V14.3418L19.8333 13.7585L19.7925 13.7993ZM6.73983 1.16667H13.4167V9.33333H1.63567L6.73983 1.16667ZM14.5833 33.8333V31.7415L15.1667 32.3248L17.5 29.9915L19.8333 32.3248L20.4167 31.7415V33.8333H14.5833ZM21.5833 33.8333V28.9252L19.8333 30.6752L17.5 28.3418L15.1667 30.6752L13.4167 28.9252V33.8333H1.16667V10.5H13.4167V17.1582L15.1667 15.4082L17.5 17.7415L19.8333 15.4082L21.5833 17.1582V10.5H33.8333V33.8333H21.5833Z" fill="#6E6E73"/>
<path d="M17.5 2.33329C17.8221 2.33329 18.0833 2.07213 18.0833 1.74996C18.0833 1.42779 17.8221 1.16663 17.5 1.16663C17.1778 1.16663 16.9166 1.42779 16.9166 1.74996C16.9166 2.07213 17.1778 2.33329 17.5 2.33329Z" fill="#6E6E73"/>
<path d="M15.75 4.08329C16.0721 4.08329 16.3333 3.82213 16.3333 3.49996C16.3333 3.17779 16.0721 2.91663 15.75 2.91663C15.4278 2.91663 15.1666 3.17779 15.1666 3.49996C15.1666 3.82213 15.4278 4.08329 15.75 4.08329Z" fill="#6E6E73"/>
<path d="M15.75 7.58329C16.0721 7.58329 16.3333 7.32213 16.3333 6.99996C16.3333 6.67779 16.0721 6.41663 15.75 6.41663C15.4278 6.41663 15.1666 6.67779 15.1666 6.99996C15.1666 7.32213 15.4278 7.58329 15.75 7.58329Z" fill="#6E6E73"/>
<path d="M17.5 5.83329C17.8221 5.83329 18.0833 5.57213 18.0833 5.24996C18.0833 4.92779 17.8221 4.66663 17.5 4.66663C17.1778 4.66663 16.9166 4.92779 16.9166 5.24996C16.9166 5.57213 17.1778 5.83329 17.5 5.83329Z" fill="#6E6E73"/>
<path d="M19.25 4.08329C19.5721 4.08329 19.8333 3.82213 19.8333 3.49996C19.8333 3.17779 19.5721 2.91663 19.25 2.91663C18.9278 2.91663 18.6666 3.17779 18.6666 3.49996C18.6666 3.82213 18.9278 4.08329 19.25 4.08329Z" fill="#6E6E73"/>
<path d="M19.25 7.58329C19.5721 7.58329 19.8333 7.32213 19.8333 6.99996C19.8333 6.67779 19.5721 6.41663 19.25 6.41663C18.9278 6.41663 18.6666 6.67779 18.6666 6.99996C18.6666 7.32213 18.9278 7.58329 19.25 7.58329Z" fill="#6E6E73"/>
<path d="M17.5 9.33329C17.8221 9.33329 18.0833 9.07213 18.0833 8.74996C18.0833 8.42779 17.8221 8.16663 17.5 8.16663C17.1778 8.16663 16.9166 8.42779 16.9166 8.74996C16.9166 9.07213 17.1778 9.33329 17.5 9.33329Z" fill="#6E6E73"/>
<path d="M17.5 12.8333C17.8221 12.8333 18.0833 12.5721 18.0833 12.25C18.0833 11.9278 17.8221 11.6666 17.5 11.6666C17.1778 11.6666 16.9166 11.9278 16.9166 12.25C16.9166 12.5721 17.1778 12.8333 17.5 12.8333Z" fill="#6E6E73"/>
</svg>
