<svg width="35" height="35" viewBox="0 0 35 35" fill="none" xmlns="http://www.w3.org/2000/svg">
<path d="M31.9099 2H3.08952C1.38589 2 0 3.38584 0 5.08952V25.0648C0 26.7685 1.38589 28.1544 3.08952 28.1544H12.9952C13.2975 28.1544 13.5421 27.9098 13.5421 27.6075C13.5421 27.3052 13.2975 27.0606 12.9952 27.0606H3.08952C1.98888 27.0606 1.09375 26.1655 1.09375 25.0648V5.08952C1.09375 3.98882 1.98888 3.09375 3.08952 3.09375H31.9099C33.0106 3.09375 33.9062 3.98882 33.9062 5.08952V25.0648C33.9062 26.1655 33.0106 27.0606 31.9099 27.0606C31.6077 27.0606 31.3631 27.3052 31.3631 27.6075C31.3631 27.9098 31.6077 28.1544 31.9099 28.1544C33.6136 28.1544 35 26.7685 35 25.0648V5.08952C35 3.38584 33.6136 2 31.9099 2Z" fill="#6E6E73"/>
<path d="M12.0312 17.3125H5.46875C5.16649 17.3125 4.92188 17.5571 4.92188 17.8594C4.92188 18.1616 5.16649 18.4062 5.46875 18.4062H12.0312C12.3336 18.4062 12.5781 18.1616 12.5781 17.8594C12.5781 17.5571 12.3336 17.3125 12.0312 17.3125Z" fill="#6E6E73"/>
<path d="M12.0312 20.8944H5.46875C5.16649 20.8944 4.92188 21.139 4.92188 21.4413C4.92188 21.7435 5.16649 21.9882 5.46875 21.9882H12.0312C12.3336 21.9882 12.5781 21.7435 12.5781 21.4413C12.5781 21.139 12.3336 20.8944 12.0312 20.8944Z" fill="#6E6E73"/>
<path d="M28.2937 22.7027C28.2837 22.6683 28.2617 22.6421 28.2458 22.6113C29.3811 21.3514 30.078 19.6888 30.078 17.8594C30.078 13.933 26.895 10.75 22.9686 10.75C19.0422 10.75 15.8593 13.933 15.8593 17.8594C15.8593 19.6687 16.5408 21.3149 17.6538 22.5698C17.6424 22.5947 17.6242 22.6147 17.6163 22.6419L15.3156 30.5299C15.2552 30.7371 15.322 30.9598 15.486 31.0997C15.6499 31.2396 15.8807 31.269 16.0751 31.1771L18.4901 30.03L20.0073 32.2303C20.1104 32.3798 20.2797 32.4669 20.4575 32.4669C20.4885 32.4669 20.5195 32.4642 20.5505 32.4589C20.7609 32.4225 20.9307 32.2677 20.9857 32.0616L22.8871 24.9646C22.9146 24.9649 22.9411 24.9688 22.9686 24.9688C22.9817 24.9688 22.9942 24.9668 23.0073 24.9668L24.9089 32.0616C24.9639 32.2672 25.1332 32.4221 25.3431 32.4589C25.3746 32.4642 25.4061 32.4669 25.4371 32.4669C25.6144 32.4669 25.7826 32.3809 25.8862 32.2325L27.4083 30.0428L29.8206 31.1782C30.0145 31.269 30.2447 31.2386 30.4092 31.0986C30.5726 30.9587 30.6388 30.7365 30.5785 30.5299L28.2937 22.7027ZM22.9686 11.8438C26.2857 11.8438 28.9843 14.5423 28.9843 17.8594C28.9843 21.1764 26.2857 23.875 22.9686 23.875C19.6516 23.875 16.953 21.1764 16.953 17.8594C16.953 14.5423 19.6516 11.8438 22.9686 11.8438ZM20.2359 30.6351L19.1261 29.026C18.9739 28.8054 18.685 28.7263 18.4414 28.8423L16.7068 29.6663L18.5319 23.4092C19.455 24.1481 20.5663 24.6571 21.7824 24.8619L20.2359 30.6351ZM27.4558 28.8562C27.2139 28.744 26.9261 28.8198 26.7738 29.0388L25.6603 30.6409L24.1131 24.8683C25.3297 24.6709 26.4421 24.1687 27.3686 23.4368L29.1883 29.6717L27.4558 28.8562Z" fill="#6E6E73"/>
<path d="M12.5781 8.01562C12.5781 7.41155 12.0885 6.92188 11.4844 6.92188H6.01562C5.4116 6.92188 4.92188 7.41155 4.92188 8.01562V13.4844C4.92188 14.0884 5.4116 14.5781 6.01562 14.5781H11.4844C12.0885 14.5781 12.5781 14.0884 12.5781 13.4844V8.01562ZM11.4844 13.4844H6.01562V8.01562H11.4844V13.4844Z" fill="#6E6E73"/>
<path d="M22.9688 21.1406C24.781 21.1406 26.25 19.6716 26.25 17.8594C26.25 16.0471 24.781 14.5781 22.9688 14.5781C21.1566 14.5781 19.6875 16.0471 19.6875 17.8594C19.6875 19.6716 21.1566 21.1406 22.9688 21.1406ZM22.9688 15.6719C24.175 15.6719 25.1562 16.6531 25.1562 17.8594C25.1562 19.0656 24.175 20.0469 22.9688 20.0469C21.7626 20.0469 20.7812 19.0656 20.7812 17.8594C20.7812 16.6531 21.7626 15.6719 22.9688 15.6719Z" fill="#6E6E73"/>
</svg>
