<svg width="35" height="35" viewBox="0 0 35 35" fill="none" xmlns="http://www.w3.org/2000/svg">
<g clip-path="url(#clip0_1_764)">
<path d="M34.2707 17.5C34.6718 17.5 34.9999 17.1718 34.9999 16.7708C34.9999 16.3697 34.6718 16.0416 34.2707 16.0416H29.1666V11.6666H34.2707C34.6718 11.6666 34.9999 11.3385 34.9999 10.9374C34.9999 10.5363 34.6718 10.2082 34.2707 10.2082H29.1666V7.72186C29.1666 6.67918 28.3208 5.84061 27.278 5.8333H23.3332V0.729188C23.3333 0.328124 23.0051 0 22.6041 0C22.2031 0 21.875 0.328124 21.875 0.729188V5.83337H17.5V0.729188C17.5 0.328124 17.1718 0 16.7708 0C16.3697 0 16.0416 0.328124 16.0416 0.729188V5.83337H11.6666V0.729188C11.6667 0.328124 11.3385 0 10.9375 0C10.5364 0 10.2083 0.328124 10.2083 0.729188V5.83337H7.72186C6.67918 5.83337 5.8333 6.67918 5.8333 7.72193V9.47924H0.729188C0.328124 9.47917 0 9.8073 0 10.2083C0 10.6094 0.328124 10.9375 0.729188 10.9375H5.83337V15.3125H0.729188C0.328124 15.3125 0 15.6406 0 16.0417C0 16.4427 0.328124 16.7708 0.729188 16.7708H5.83337V21.1458H0.729188C0.328124 21.1458 0 21.4739 0 21.875C0 22.276 0.328124 22.6041 0.729188 22.6041H5.83337V27.2781C5.83337 28.3208 6.67918 29.1593 7.72193 29.1666H11.6667V34.2708C11.6667 34.6719 11.9949 35 12.3959 35C12.7969 34.9999 13.125 34.6718 13.125 34.2707V29.1666H17.5V34.2707C17.5 34.6718 17.8281 34.9999 18.2292 34.9999C18.6302 34.9999 18.9583 34.6718 18.9583 34.2707V29.1666H23.3333V34.2707C23.3333 34.6718 23.6615 34.9999 24.0625 34.9999C24.4636 34.9999 24.7917 34.6718 24.7917 34.2707V29.1666H27.2781C28.3208 29.1666 29.1594 28.3208 29.1667 27.278V23.3332H34.2709C34.6719 23.3332 35.0001 23.0051 35.0001 22.604C34.9999 22.2031 34.6718 21.875 34.2707 21.875H29.1666V17.5H34.2707ZM27.7156 27.2781H27.7083C27.7083 27.5114 27.5187 27.7083 27.2781 27.7083H7.72186C7.48855 27.7083 7.29168 27.5187 7.29168 27.2781V7.72186C7.29168 7.48855 7.48124 7.29168 7.72186 7.29168H27.2854C27.5187 7.29168 27.7156 7.48124 27.7156 7.72186V27.2781Z" fill="#6E6E73"/>
<path d="M22.3417 8.75H12.6583C10.5 8.75 8.75 10.5 8.75 12.6583V22.3416C8.75731 24.5 10.5 26.25 12.6583 26.25H22.3416C24.5 26.25 26.25 24.5 26.25 22.3417V12.6583C26.2427 10.5 24.5 8.75 22.3417 8.75ZM24.7917 22.3417C24.7917 23.6979 23.6906 24.7917 22.3417 24.7917H12.6583C11.3021 24.7917 10.2083 23.6979 10.2083 22.3417V12.6583C10.2156 11.3021 11.3094 10.2083 12.6583 10.2083H22.3343C23.6906 10.2083 24.7843 11.3021 24.7917 12.6583V22.3417V22.3417Z" fill="#6E6E73"/>
</g>
<defs>
<clipPath id="clip0_1_764">
<rect width="35" height="35" fill="white"/>
</clipPath>
</defs>
</svg>
