<svg width="100" height="100" viewBox="0 0 100 100" fill="none" xmlns="http://www.w3.org/2000/svg">
<g opacity="1">
<path d="M86.4898 35.9531C88.0976 35.9531 89.6088 35.3273 90.7456 34.1905C91.8826 33.0534 92.5087 31.5423 92.5087 29.9344C92.5087 28.3266 91.8826 26.8155 90.7456 25.6787L84.7877 19.7205C83.6509 18.5835 82.1397 17.9576 80.5319 17.9576C78.9241 17.9576 77.4129 18.5835 76.2761 19.7205C74.1183 21.8781 73.9462 25.2792 75.7564 27.6372L74.339 28.9654C69.2752 24.9188 63.2088 22.0771 56.5766 20.8824V17.8536C61.345 17.675 65.1697 13.7423 65.1697 8.93108C65.1697 4.00645 61.1633 0 56.2387 0H42.7396C37.815 0 33.8085 4.00645 33.8085 8.93108C33.8085 13.7423 37.6332 17.675 42.4016 17.8536V20.8824C35.7113 22.0877 29.5971 24.9689 24.5068 29.072L23.2869 27.8045C25.2369 25.4428 25.1081 21.9298 22.8993 19.7205C21.7625 18.5835 20.2508 17.9576 18.6432 17.9576C17.0356 17.9576 15.5242 18.5835 14.3874 19.7205L8.42953 25.6787C7.29273 26.8155 6.66667 28.3266 6.66667 29.9344C6.66667 31.5423 7.29273 33.0534 8.42953 34.1902C9.56633 35.3273 11.078 35.9531 12.6856 35.9531C14.0457 35.9531 15.3364 35.5033 16.3902 34.6769L17.7196 36.0583C12.6364 42.7514 9.61478 51.0919 9.61478 60.1258C9.61478 82.1123 27.5025 100 49.4892 100C71.476 100 89.3635 82.1123 89.3635 60.1258C89.3635 51.029 86.2993 42.6356 81.1518 35.9188L82.6197 34.5431C83.7026 35.4554 85.0576 35.9531 86.4898 35.9531ZM82.2732 60.1255C82.2732 78.2025 67.5662 92.9095 49.4892 92.9095C31.412 92.9095 16.705 78.2025 16.705 60.1255C16.705 42.0483 31.412 27.3413 49.4892 27.3413C67.5665 27.3415 82.2732 42.0483 82.2732 60.1255Z" fill="white"/>
<path d="M49.4892 34.8461C35.5501 34.8461 24.2097 46.1864 24.2097 60.1255C24.2097 74.0647 35.5501 85.4048 49.4892 85.4048C63.4283 85.4048 74.7684 74.0647 74.7684 60.1255C74.7684 46.1864 63.4283 34.8461 49.4892 34.8461ZM62.9212 53.0748L54.5731 60.3858C54.5114 61.602 54.0218 62.8004 53.0929 63.7293C51.1027 65.7195 47.8757 65.7195 45.8855 63.7293C43.8953 61.7388 43.8953 58.512 45.8855 56.5218C46.9866 55.4207 48.4659 54.9315 49.9052 55.0489L58.2497 47.7411C59.7228 46.4513 61.9621 46.5993 63.2523 48.0722C64.5422 49.5453 64.3938 51.7848 62.9212 53.0748Z" fill="white"/>
</g>
</svg>
