<svg width="30" height="30" viewBox="0 0 30 30" fill="none" xmlns="http://www.w3.org/2000/svg">
<path d="M15.2128 10.9155C14.2103 10.9155 13.2715 11.3044 12.5606 12.0153C11.8532 12.7261 11.4609 13.6649 11.4609 14.6674C11.4609 15.67 11.8532 16.6088 12.5606 17.3196C13.2715 18.0271 14.2103 18.4194 15.2128 18.4194C16.2153 18.4194 17.1542 18.0271 17.865 17.3196C18.5724 16.6088 18.9647 15.67 18.9647 14.6674C18.9647 13.6649 18.5724 12.7261 17.865 12.0153C17.5178 11.6654 17.1045 11.388 16.6493 11.1992C16.194 11.0104 15.7057 10.914 15.2128 10.9155ZM29.037 18.8117L26.8441 16.9374C26.9481 16.3003 27.0017 15.6498 27.0017 15.0027C27.0017 14.3556 26.9481 13.7018 26.8441 13.0681L29.037 11.1938C29.2026 11.052 29.3212 10.8631 29.3769 10.6523C29.4326 10.4415 29.4228 10.2187 29.3488 10.0135L29.3186 9.92637C28.7151 8.23881 27.8109 6.67454 26.6497 5.30938L26.5893 5.23896C26.4483 5.07317 26.2604 4.95399 26.0503 4.89712C25.8402 4.84026 25.6178 4.84839 25.4124 4.92044L22.6899 5.88943C21.684 5.06461 20.5641 4.41414 19.3503 3.9615L18.8239 1.11485C18.7842 0.900405 18.6802 0.703119 18.5257 0.549204C18.3711 0.395288 18.1735 0.29203 17.9589 0.253147L17.8683 0.236382C16.1248 -0.078794 14.2874 -0.078794 12.5439 0.236382L12.4533 0.253147C12.2387 0.29203 12.041 0.395288 11.8865 0.549204C11.732 0.703119 11.628 0.900405 11.5883 1.11485L11.0585 3.97491C9.85625 4.43116 8.73625 5.08005 7.74246 5.89614L4.99976 4.92044C4.79444 4.84782 4.57189 4.8394 4.36168 4.89629C4.15146 4.95319 3.96354 5.07271 3.82288 5.23896L3.76252 5.30938C2.60339 6.676 1.69936 8.23987 1.09358 9.92637L1.06341 10.0135C0.912526 10.4327 1.03658 10.9021 1.37523 11.1938L3.59488 13.0882C3.49093 13.7185 3.44064 14.3623 3.44064 14.9994C3.44064 15.6431 3.49093 16.2869 3.59488 16.9105L1.38194 18.8049C1.21629 18.9468 1.09773 19.1356 1.04203 19.3465C0.986329 19.5573 0.996124 19.7801 1.07011 19.9852L1.10029 20.0724C1.70717 21.7589 2.60241 23.318 3.76923 24.6894L3.82958 24.7598C3.97059 24.9256 4.15852 25.0447 4.36861 25.1016C4.5787 25.1585 4.80108 25.1503 5.00646 25.0783L7.74916 24.1026C8.74834 24.9241 9.86151 25.5745 11.0652 26.0238L11.595 28.8839C11.6347 29.0983 11.7387 29.2956 11.8932 29.4495C12.0478 29.6034 12.2454 29.7067 12.46 29.7456L12.5506 29.7623C14.3112 30.0792 16.1144 30.0792 17.875 29.7623L17.9656 29.7456C18.1802 29.7067 18.3779 29.6034 18.5324 29.4495C18.6869 29.2956 18.7909 29.0983 18.8306 28.8839L19.357 26.0372C20.5708 25.5812 21.6907 24.9341 22.6966 24.1093L25.4191 25.0783C25.6245 25.1509 25.847 25.1593 26.0572 25.1024C26.2674 25.0455 26.4554 24.926 26.596 24.7598L26.6564 24.6894C27.8232 23.3113 28.7184 21.7589 29.3253 20.0724L29.3555 19.9852C29.4997 19.5694 29.3756 19.1034 29.037 18.8117ZM15.2128 20.5619C11.9571 20.5619 9.31834 17.9231 9.31834 14.6674C9.31834 11.4117 11.9571 8.77296 15.2128 8.77296C18.4685 8.77296 21.1073 11.4117 21.1073 14.6674C21.1073 17.9231 18.4685 20.5619 15.2128 20.5619Z" fill="white"/>
</svg>
