<svg width="30" height="24" viewBox="0 0 30 24" fill="none" xmlns="http://www.w3.org/2000/svg">
<path d="M24.476 18.4443C23.0078 18.4443 21.8135 19.6403 21.8135 21.1108C21.8135 22.5819 23.0078 23.7787 24.476 23.7787C25.9448 23.7787 27.1388 22.5819 27.1388 21.1108C27.1388 19.6403 25.9448 18.4443 24.476 18.4443Z" fill="#0071E3"/>
<path d="M6.52163 18.4443C5.05274 18.4443 3.8584 19.6403 3.8584 21.1108C3.8584 22.5819 5.05274 23.7787 6.52163 23.7787C7.98971 23.7787 9.18405 22.5819 9.18405 21.1108C9.18416 19.6403 7.98981 18.4443 6.52163 18.4443Z" fill="#0071E3"/>
<path d="M25.9779 7.24211C25.8374 6.81878 25.4413 6.53271 24.9949 6.53271H23.7363V10.9598H27.2095L25.9779 7.24211Z" fill="#0071E3"/>
<path d="M29.3141 12.6167H23.7363V16.8519C23.9766 16.8106 24.2237 16.7875 24.4755 16.7875C26.7011 16.7875 28.5387 18.4814 28.77 20.6486H28.9649C29.5363 20.6486 30 20.185 30 19.6129V13.5903C30 13.1409 29.7135 12.7603 29.3141 12.6167Z" fill="#0071E3"/>
<path d="M22.0403 1.63586C22.0403 1.06373 21.5767 0.600098 21.0052 0.600098H1.03505C0.463636 0.600098 0 1.06363 0 1.63586V19.6129C0 20.185 0.463636 20.6487 1.03505 20.6487H2.22697C2.45838 18.4815 4.29586 16.7876 6.52182 16.7876C8.74697 16.7876 10.5841 18.4815 10.8156 20.6487H18.9898H20.1817C20.3211 19.3438 21.0424 18.212 22.0803 17.5166L22.0403 1.63586Z" fill="#0071E3"/>
</svg>
