<svg width="50" height="50" viewBox="0 0 50 50" fill="none" xmlns="http://www.w3.org/2000/svg">
<path d="M46.1687 46.3855V5.42169H43.759V0.903615C43.759 0.663961 43.6638 0.434124 43.4944 0.264663C43.3249 0.0952024 43.0951 0 42.8554 0C42.6158 0 42.3859 0.0952024 42.2165 0.264663C42.047 0.434124 41.9518 0.663961 41.9518 0.903615V5.42169H8.21687V0.903615C8.21687 0.663961 8.12167 0.434124 7.95221 0.264663C7.78274 0.0952024 7.55291 0 7.31325 0C7.0736 0 6.84376 0.0952024 6.6743 0.264663C6.50484 0.434124 6.40964 0.663961 6.40964 0.903615V5.42169H4V46.3855H6.10843V48.1928C6.10843 48.3525 6.04497 48.5058 5.93199 48.6187C5.81902 48.7317 5.66579 48.7952 5.50602 48.7952H4V50H10.0241V48.7952H8.51807C8.3583 48.7952 8.20508 48.7317 8.0921 48.6187C7.97913 48.5058 7.91566 48.3525 7.91566 48.1928V46.3855H42.253V48.1928C42.253 48.3525 42.1895 48.5058 42.0766 48.6187C41.9636 48.7317 41.8104 48.7952 41.6506 48.7952H40.1446V50H46.1687V48.7952H44.6627C44.5029 48.7952 44.3497 48.7317 44.2367 48.6187C44.1237 48.5058 44.0602 48.3525 44.0602 48.1928V46.3855H46.1687ZM25.6229 19.7831C26.0246 19.3013 26.6007 18.9981 27.2253 18.9398C27.2645 19.5801 27.0624 20.212 26.659 20.7108C26.4676 20.956 26.2225 21.154 25.9427 21.2897C25.6628 21.4255 25.3556 21.4953 25.0446 21.494C25.0225 21.1847 25.0622 20.8741 25.1615 20.5803C25.2608 20.2866 25.4177 20.0156 25.6229 19.7831ZM28.7434 28.6145C28.2855 29.2892 27.8277 29.9639 27.0807 29.9759C26.3578 29.988 26.1169 29.5422 25.2976 29.5422C24.4783 29.5422 24.2012 29.9639 23.5265 29.988C22.8036 30.012 22.2614 29.2651 21.8036 28.5904C20.8759 27.2169 20.1651 24.7229 21.1169 23.0361C21.3359 22.6288 21.6583 22.2862 22.0516 22.043C22.445 21.7998 22.8955 21.6644 23.3578 21.6506C24.0687 21.6386 24.7193 22.1205 25.141 22.1205C25.5627 22.1205 26.3217 21.5542 27.2253 21.6024C27.6193 21.6168 28.0045 21.7236 28.3498 21.914C28.6951 22.1044 28.9908 22.3732 29.2133 22.6988C28.8569 22.9237 28.563 23.2347 28.3587 23.6033C28.1545 23.9718 28.0464 24.3859 28.0446 24.8072C28.0423 25.2823 28.1792 25.7476 28.4382 26.1458C28.6973 26.544 29.0672 26.8577 29.5024 27.0482C29.312 27.5984 29.0572 28.1241 28.7434 28.6145Z" fill="#F5F5F7"/>
</svg>
