<svg width="50" height="50" viewBox="0 0 50 50" fill="none" xmlns="http://www.w3.org/2000/svg">
<path d="M0 12V35.3857C0 36.8143 0.714286 37.7071 1.78571 37.7071H5.17857L6.60714 38.7857H43.3929L44.8214 37.7071H48.2143C49.2857 37.7071 50 36.8143 50 35.3857V12H0ZM41.7857 34.908C40.6154 34.8641 39.7023 33.8796 39.7461 32.7091C39.7898 31.5386 40.7743 30.6252 41.9446 30.6691C43.0852 30.712 43.9873 31.65 43.9857 32.7916C43.9646 33.9816 42.983 34.9293 41.7934 34.9082L41.7857 34.908ZM41.7932 34.9082C41.7907 34.9082 41.7882 34.908 41.7855 34.908L41.7932 34.9082Z" fill="#F5F5F7"/>
</svg>
