<svg width="24" height="4" viewBox="0 0 24 4" fill="none" xmlns="http://www.w3.org/2000/svg">
<path d="M2.052 3.108C1.716 3.108 1.428 2.994 1.188 2.766C0.948 2.526 0.828 2.226 0.828 1.866C0.828 1.506 0.948 1.212 1.188 0.984C1.428 0.756 1.716 0.642 2.052 0.642C2.376 0.642 2.652 0.756 2.88 0.984C3.12 1.212 3.24 1.506 3.24 1.866C3.24 2.226 3.12 2.526 2.88 2.766C2.652 2.994 2.376 3.108 2.052 3.108ZM6.13013 3.108C5.79413 3.108 5.50613 2.994 5.26612 2.766C5.02613 2.526 4.90613 2.226 4.90613 1.866C4.90613 1.506 5.02613 1.212 5.26612 0.984C5.50613 0.756 5.79413 0.642 6.13013 0.642C6.45413 0.642 6.73013 0.756 6.95813 0.984C7.19813 1.212 7.31813 1.506 7.31813 1.866C7.31813 2.226 7.19813 2.526 6.95813 2.766C6.73013 2.994 6.45413 3.108 6.13013 3.108ZM10.2083 3.108C9.87225 3.108 9.58425 2.994 9.34425 2.766C9.10425 2.526 8.98425 2.226 8.98425 1.866C8.98425 1.506 9.10425 1.212 9.34425 0.984C9.58425 0.756 9.87225 0.642 10.2083 0.642C10.5323 0.642 10.8083 0.756 11.0363 0.984C11.2763 1.212 11.3963 1.506 11.3963 1.866C11.3963 2.226 11.2763 2.526 11.0363 2.766C10.8083 2.994 10.5323 3.108 10.2083 3.108ZM14.2864 3.108C13.9504 3.108 13.6624 2.994 13.4224 2.766C13.1824 2.526 13.0624 2.226 13.0624 1.866C13.0624 1.506 13.1824 1.212 13.4224 0.984C13.6624 0.756 13.9504 0.642 14.2864 0.642C14.6104 0.642 14.8864 0.756 15.1144 0.984C15.3544 1.212 15.4744 1.506 15.4744 1.866C15.4744 2.226 15.3544 2.526 15.1144 2.766C14.8864 2.994 14.6104 3.108 14.2864 3.108ZM18.3645 3.108C18.0285 3.108 17.7405 2.994 17.5005 2.766C17.2605 2.526 17.1405 2.226 17.1405 1.866C17.1405 1.506 17.2605 1.212 17.5005 0.984C17.7405 0.756 18.0285 0.642 18.3645 0.642C18.6885 0.642 18.9645 0.756 19.1925 0.984C19.4325 1.212 19.5525 1.506 19.5525 1.866C19.5525 2.226 19.4325 2.526 19.1925 2.766C18.9645 2.994 18.6885 3.108 18.3645 3.108ZM22.4426 3.108C22.1066 3.108 21.8186 2.994 21.5786 2.766C21.3386 2.526 21.2186 2.226 21.2186 1.866C21.2186 1.506 21.3386 1.212 21.5786 0.984C21.8186 0.756 22.1066 0.642 22.4426 0.642C22.7666 0.642 23.0426 0.756 23.2706 0.984C23.5106 1.212 23.6306 1.506 23.6306 1.866C23.6306 2.226 23.5106 2.526 23.2706 2.766C23.0426 2.994 22.7666 3.108 22.4426 3.108Z" fill="#A4A4A4"/>
</svg>
