<svg width="50" height="50" viewBox="0 0 50 50" fill="none" xmlns="http://www.w3.org/2000/svg">
<path d="M11.4994 0.026297C7.17595 0.189788 4.43294 2.91463 1.88975 5.58498C0.799807 6.78392 1.01779 7.65587 1.01779 10.1446C1.01779 13.5052 1.0178 13.9049 1.92608 15.3581C2.92666 17.0154 4.32771 18.3947 6.0005 19.3691C7.67329 20.3436 9.56417 20.882 11.4994 20.935C18.0753 21.4254 23.743 16.2664 23.743 10.4897C23.743 4.71304 18.0753 -0.209856 11.4994 0.026297ZM5.88619 13.6687C5.85208 13.9312 5.72358 14.1724 5.52468 14.3471C5.32578 14.5219 5.07008 14.6182 4.80533 14.6182C4.54058 14.6182 4.28489 14.5219 4.08599 14.3471C3.88709 14.1724 3.75858 13.9312 3.72448 13.6687V7.45605C3.75858 7.1935 3.88709 6.95235 4.08599 6.77762C4.28489 6.60289 4.54058 6.50653 4.80533 6.50653C5.07008 6.50653 5.32578 6.60289 5.52468 6.77762C5.72358 6.95235 5.85208 7.1935 5.88619 7.45605V13.6687ZM18.0753 10.5442C18.0732 10.7566 18.0292 10.9665 17.9458 11.1618C17.8625 11.3572 17.7414 11.5342 17.5895 11.6827C17.4377 11.8312 17.258 11.9482 17.0608 12.0272C16.8636 12.1061 16.6528 12.1454 16.4404 12.1428H12.9163C12.704 12.1452 12.4933 12.1057 12.2962 12.0267C12.0991 11.9477 11.9196 11.8306 11.7677 11.6821C11.6159 11.5337 11.4948 11.3568 11.4114 11.1615C11.3279 10.9663 11.2838 10.7565 11.2814 10.5442V10.3444C11.2838 10.1321 11.3279 9.9223 11.4114 9.72705C11.4948 9.53181 11.6159 9.35491 11.7677 9.20647C11.9196 9.05802 12.0991 8.94094 12.2962 8.8619C12.4933 8.78286 12.704 8.74341 12.9163 8.74581H16.4568C16.6692 8.74317 16.88 8.78245 17.0772 8.86141C17.2743 8.94036 17.454 9.05744 17.6059 9.20593C17.7577 9.35442 17.8788 9.53141 17.9622 9.72676C18.0455 9.92212 18.0896 10.132 18.0917 10.3444L18.0753 10.5442ZM12.6256 23.1148V47.584C12.7051 48.2092 12.9947 48.7888 13.4469 49.2278C13.8991 49.6668 14.487 49.9391 15.1143 50H18.039C18.737 49.9426 19.39 49.6321 19.8751 49.1269C20.3602 48.6217 20.6439 47.9567 20.673 47.257V46.8937V20.935C18.31 22.5739 15.4578 23.3559 12.5893 23.1512L12.6256 23.1148ZM48.9569 5.45783C46.4138 2.78748 43.5073 0.153456 39.2383 0.00813097C32.6624 -0.228022 27.031 4.71304 27.031 10.5079C27.1141 11.9823 27.4867 13.4259 28.1278 14.7563C28.7688 16.0867 29.6655 17.2777 30.7669 18.2615C31.8682 19.2453 33.1526 20.0025 34.5466 20.4899C35.9406 20.9773 37.417 21.1853 38.8914 21.1021H38.9477C40.9273 21.0039 42.8528 20.4228 44.5563 19.4096C46.2598 18.3963 47.6895 16.9817 48.7208 15.2891C49.7017 13.8358 49.6291 13.4725 49.6291 10.0755C49.7017 7.56867 49.9924 6.69673 48.848 5.49779L48.9569 5.45783ZM39.4563 10.5442C39.4542 10.7566 39.4102 10.9665 39.3268 11.1618C39.2434 11.3572 39.1224 11.5342 38.9705 11.6827C38.8186 11.8312 38.639 11.9482 38.4418 12.0272C38.2446 12.1061 38.0338 12.1454 37.8214 12.1428H34.1883C33.976 12.1452 33.7652 12.1057 33.5682 12.0267C33.3711 11.9477 33.1915 11.8306 33.0397 11.6821C32.8879 11.5337 32.7668 11.3568 32.6834 11.1615C32.5999 10.9663 32.5557 10.7565 32.5534 10.5442V10.3444C32.5557 10.1321 32.5999 9.9223 32.6834 9.72705C32.7668 9.53181 32.8879 9.35491 33.0397 9.20647C33.1915 9.05802 33.3711 8.94094 33.5682 8.8619C33.7652 8.78286 33.976 8.74341 34.1883 8.74581H37.7106C37.923 8.74317 38.1338 8.78245 38.331 8.86141C38.5281 8.94036 38.7078 9.05744 38.8597 9.20593C39.0115 9.35442 39.1326 9.53141 39.216 9.72676C39.2994 9.92212 39.3434 10.132 39.3455 10.3444L39.4563 10.5442ZM46.8679 13.6687C46.8338 13.9312 46.7053 14.1724 46.5064 14.3471C46.3075 14.5219 46.0518 14.6182 45.787 14.6182C45.5223 14.6182 45.2666 14.5219 45.0677 14.3471C44.8688 14.1724 44.7403 13.9312 44.7062 13.6687V7.47421C44.7062 7.18755 44.8201 6.91263 45.0228 6.70993C45.2255 6.50723 45.5004 6.39336 45.787 6.39336C46.0737 6.39336 46.3486 6.50723 46.5513 6.70993C46.754 6.91263 46.8679 7.18755 46.8679 7.47421V13.6687ZM29.8648 20.935V46.8392V47.2025C29.8782 47.9309 30.1699 48.6266 30.68 49.1468C31.19 49.667 31.8798 49.9723 32.6079 50H35.5144C36.1439 49.9518 36.7379 49.6893 37.1973 49.2563C37.6568 48.8233 37.954 48.2459 38.0394 47.6203V23.133C35.1421 23.3704 32.2524 22.5934 29.8648 20.935Z" fill="#F5F5F7"/>
</svg>
