<svg width="96" height="100" viewBox="0 0 96 100" fill="none" xmlns="http://www.w3.org/2000/svg">
<path d="M52.2921 0H43.5537C19.538 0 0 19.538 0 43.5537V45.3157V58.3884V67.0702C0 68.4183 1.09285 69.5106 2.44048 69.5106H3.41667H6.10363V71.2292C6.10363 72.5773 7.19648 73.6697 8.54411 73.6697H12.9731C17.3518 73.6697 20.9139 70.1076 20.9139 65.7289V46.6565C20.9139 42.2778 17.3518 38.7157 12.9731 38.7157H8.54411C7.19648 38.7157 6.10363 39.8081 6.10363 41.1562V42.8753H4.89804C5.26264 21.8642 22.4568 4.88095 43.5537 4.88095H52.2921C73.3885 4.88095 90.5832 21.8642 90.9478 42.8758H89.7422V41.1562C89.7422 39.8081 88.6493 38.7157 87.3017 38.7157H82.8732C78.4945 38.7157 74.9324 42.2778 74.9324 46.6565V65.7298C74.9324 70.1086 78.4945 73.6707 82.8732 73.6707H87.3017C87.9777 73.6707 88.5893 73.3954 89.031 72.9512V78.2187C89.031 85.2839 83.2832 91.0312 76.2185 91.0312H61.7079C60.7391 88.6381 58.3943 86.9435 55.6575 86.9435H49.0682C45.4685 86.9435 42.54 89.872 42.54 93.4717C42.54 97.0714 45.4685 100 49.0682 100H55.6575C58.3943 100 60.7391 98.3053 61.7079 95.9122H76.2185C85.9746 95.9122 93.912 87.9748 93.912 78.2187V69.4574C95.0165 69.2241 95.8458 68.245 95.8458 67.0711V58.3894V45.3162V43.5542C95.8458 19.538 76.3078 0 52.2921 0Z" fill="white"/>
</svg>
