<svg width="50" height="50" viewBox="0 0 50 50" fill="none" xmlns="http://www.w3.org/2000/svg">
<path d="M45.1923 36.0494V13.4533C45.2151 13.2584 45.1935 13.0608 45.1291 12.8755C45.0647 12.6901 44.9591 12.5217 44.8204 12.3829C44.6816 12.2442 44.5132 12.1386 44.3278 12.0742C44.1425 12.0098 43.9449 11.9882 43.75 12.011H6.25C6.05451 11.9853 5.85572 12.0049 5.66901 12.0682C5.4823 12.1316 5.31267 12.2371 5.17324 12.3765C5.03382 12.516 4.92833 12.6856 4.86494 12.8723C4.80156 13.059 4.78197 13.2578 4.80769 13.4533V36.0494H0C0.0509615 36.1379 0.122115 36.36 0.202885 36.36C1.57587 37.1272 3.09642 37.5933 4.66346 37.7273C7.13077 37.8946 11.9615 37.9812 11.9712 37.9696H24.3942H36.8644C36.8644 37.9696 42.6558 37.8918 45.124 37.7273C46.6914 37.5947 48.2122 37.1285 49.5846 36.36C49.7473 36.2936 49.8903 36.1867 50 36.0494H45.1923ZM6.73077 13.9341H43.2692V36.0494H6.73077V13.9341Z" fill="#F5F5F7"/>
</svg>
