<svg width="58" height="70" viewBox="0 0 58 70" fill="none" xmlns="http://www.w3.org/2000/svg">
<path d="M3.3496 25.7323C-2.56827 36.0017 1.19383 51.586 7.73802 61.0353C11.0046 65.7595 14.3118 70.0001 18.8416 70.0001C18.927 70.0001 19.0126 69.9985 19.1003 69.995C21.2285 69.9101 22.7664 69.2549 24.2534 68.6217C25.9229 67.9102 27.6495 67.1746 30.3576 67.1746C32.9341 67.1746 34.5783 67.8863 36.1683 68.5744C37.7354 69.2523 39.3495 69.9537 41.7346 69.909C46.837 69.8139 49.9698 65.238 52.7338 61.2012C55.618 56.9863 57.0648 52.8939 57.553 51.3301L57.5727 51.2679C57.6657 50.9899 57.5344 50.6865 57.2679 50.5642C57.2606 50.5607 57.2335 50.5495 57.2259 50.5463C56.3274 50.1788 48.4456 46.6823 48.3628 37.1522C48.2859 29.4095 54.2756 25.3094 55.4768 24.5662L55.5328 24.5313C55.663 24.4476 55.7536 24.3147 55.7844 24.1627C55.8151 24.011 55.783 23.8531 55.6958 23.7255C51.5614 17.6752 45.2247 16.7634 42.6735 16.6537C42.3033 16.6167 41.9212 16.5981 41.5374 16.5981C38.541 16.5981 35.6705 17.7298 33.3644 18.6392C31.7726 19.2669 30.3976 19.809 29.4492 19.809C28.3836 19.809 27.0009 19.2602 25.3996 18.6249C23.2583 17.7751 20.8312 16.812 18.2619 16.812C18.2006 16.812 18.1402 16.8127 18.0808 16.8139C12.1067 16.9018 6.46173 20.3196 3.3496 25.7323Z" fill="#D6D6D6"/>
<path d="M42.6789 0.000440985C39.0611 0.147785 34.7214 2.3747 32.1275 5.41294C29.923 7.96667 27.7695 12.2245 28.3369 16.5163C28.3725 16.7848 28.591 16.9921 28.8611 17.013C29.1053 17.032 29.3545 17.0417 29.6029 17.0419C33.1403 17.0419 36.9563 15.0849 39.5624 11.9337C42.3053 8.60631 43.6922 4.33608 43.2726 0.511097C43.2396 0.211359 42.9759 -0.0112639 42.6789 0.000440985Z" fill="#D6D6D6"/>
</svg>
