<svg width="50" height="50" viewBox="0 0 18 18" fill="none" xmlns="http://www.w3.org/2000/svg">
<g clip-path="url(#clip0_1_799)">
<path d="M2.40414 6.61686C0.882403 9.25755 1.8498 13.2649 3.53259 15.6948C4.37257 16.9095 5.223 18 6.3878 18C6.40976 18 6.43177 17.9996 6.45431 17.9987C7.00157 17.9769 7.39704 17.8084 7.77941 17.6455C8.20869 17.4626 8.65267 17.2734 9.34907 17.2734C10.0116 17.2734 10.4344 17.4565 10.8432 17.6334C11.2462 17.8077 11.6613 17.9881 12.2746 17.9766C13.5866 17.9521 14.3922 16.7755 15.1029 15.7374C15.8446 14.6536 16.2166 13.6013 16.3422 13.1991L16.3472 13.1831C16.3711 13.1117 16.3374 13.0336 16.2689 13.0022C16.267 13.0013 16.26 12.9984 16.2581 12.9976C16.027 12.9031 14.0003 12.004 13.979 9.55339C13.9592 7.56242 15.4994 6.50809 15.8083 6.317L15.8227 6.30803C15.8562 6.28648 15.8795 6.25231 15.8874 6.21325C15.8953 6.17424 15.887 6.13363 15.8646 6.10082C14.8015 4.54503 13.172 4.31056 12.516 4.28235C12.4208 4.27285 12.3225 4.26807 12.2239 4.26807C11.4534 4.26807 10.7152 4.55908 10.1222 4.7929C9.7129 4.95431 9.35934 5.09371 9.11548 5.09371C8.84147 5.09371 8.48589 4.9526 8.07414 4.78924C7.52351 4.5707 6.89942 4.32307 6.23873 4.32307C6.22297 4.32307 6.20745 4.32325 6.19216 4.32354C4.65597 4.34615 3.2044 5.22502 2.40414 6.61686Z" fill="#fff"/>
<path d="M12.5173 0.000113396C11.587 0.0380019 10.471 0.610638 9.80404 1.3919C9.23719 2.04857 8.68344 3.14345 8.82932 4.24705C8.83847 4.3161 8.89466 4.36939 8.96412 4.37476C9.02691 4.37966 9.091 4.38214 9.15486 4.3822C10.0645 4.3822 11.0458 3.87897 11.7159 3.06867C12.4212 2.21305 12.7778 1.11499 12.6699 0.131425C12.6614 0.0543495 12.5936 -0.00289644 12.5173 0.000113396Z" fill="#fff"/>
</g>
<defs>
<clipPath id="clip0_1_799">
<rect width="18" height="18" fill="white"/>
</clipPath>
</defs>
</svg>
