<svg width="30" height="30" viewBox="0 0 30 30" fill="none" xmlns="http://www.w3.org/2000/svg">
<path d="M8.378 6.47032C7.84987 5.94219 6.99334 5.94219 6.46521 6.47032C5.39478 7.54064 4.8053 8.96392 4.8053 10.4776C4.8053 11.9912 5.39478 13.4144 6.46521 14.4847C6.99324 15.0127 7.84965 15.013 8.378 14.4847C8.90624 13.9564 8.90624 13.1 8.378 12.5719C7.81849 12.0124 7.51033 11.2686 7.51033 10.4776C7.51033 9.68649 7.81849 8.9425 8.378 8.3831C8.90624 7.85486 8.90624 6.99856 8.378 6.47032Z" fill="white"/>
<path d="M29.0134 24.2777L19.8603 15.1245C21.795 11.2077 21.1373 6.32501 17.8812 3.0687C15.9023 1.0898 13.2712 0 10.4725 0C7.67391 0 5.04278 1.0898 3.06377 3.0687C-1.02126 7.15394 -1.02126 13.801 3.06377 17.8861C5.04278 19.865 7.6738 20.9548 10.4725 20.9548C12.1136 20.9548 13.6969 20.5796 15.1251 19.8705L24.2726 29.0181C25.5819 30.3273 27.7042 30.3273 29.0134 29.0181C30.3225 27.7092 30.3225 25.5868 29.0134 24.2777ZM4.97656 15.9734C1.94616 12.9429 1.94616 8.01198 4.97656 4.98148C6.44452 3.51351 8.39637 2.70503 10.4725 2.70503C12.5487 2.70503 14.5005 3.51351 15.9685 4.98148C20.8634 9.87651 17.35 18.2499 10.4725 18.2499C8.39637 18.2499 6.44452 17.4414 4.97656 15.9734Z" fill="white"/>
</svg>
