<svg width="9" height="10" viewBox="0 0 9 10" fill="none" xmlns="http://www.w3.org/2000/svg">
<path d="M4.18701 0C3.14285 0 2.14146 0.414791 1.40312 1.15312C0.664791 1.89146 0.25 2.89285 0.25 3.93701C0.25 6.59449 3.69488 9.59646 3.86713 9.72441L4.18701 10L4.50689 9.72441C4.67913 9.59646 8.12402 6.59449 8.12402 3.93701C8.12402 2.89285 7.70923 1.89146 6.97089 1.15312C6.23256 0.414791 5.23117 0 4.18701 0ZM4.18701 5.90551C3.79767 5.90551 3.41708 5.79006 3.09337 5.57376C2.76965 5.35746 2.51734 5.05002 2.36835 4.69032C2.21936 4.33063 2.18037 3.93482 2.25633 3.55297C2.33228 3.17112 2.51977 2.82037 2.79507 2.54507C3.07037 2.26977 3.42112 2.08228 3.80297 2.00633C4.18482 1.93037 4.58063 1.96936 4.94032 2.11835C5.30002 2.26734 5.60746 2.51965 5.82376 2.84337C6.04006 3.16708 6.15551 3.54767 6.15551 3.93701C6.15551 4.45909 5.94812 4.95978 5.57895 5.32895C5.20978 5.69812 4.70909 5.90551 4.18701 5.90551Z" fill="white"/>
<path d="M4.18689 4.92126C4.73048 4.92126 5.17114 4.48059 5.17114 3.93701C5.17114 3.39342 4.73048 2.95275 4.18689 2.95275C3.6433 2.95275 3.20264 3.39342 3.20264 3.93701C3.20264 4.48059 3.6433 4.92126 4.18689 4.92126Z" fill="white"/>
</svg>
