<svg width="30" height="30" viewBox="0 0 30 30" fill="none" xmlns="http://www.w3.org/2000/svg">
<path d="M28.9776 3.95212L20.0483 28.0718C19.4843 29.5958 17.8598 30.3787 16.4213 29.8193C16.0651 29.6781 15.7419 29.4648 15.4722 29.1928C15.2024 28.9207 14.9919 28.5957 14.8538 28.2383L12.0234 21.0834C11.4915 19.7099 10.437 18.6032 9.09092 18.0054L2.27802 15.034C0.860537 14.4145 0.215547 12.697 0.835038 11.197C0.981567 10.8348 1.19847 10.5053 1.47319 10.2275C1.74791 9.94968 2.07499 9.72911 2.43552 9.57854L25.4092 0.203674C26.8597 -0.388817 28.4691 0.355172 29.0016 1.86715C29.2371 2.53614 29.2281 3.27713 28.9791 3.95212H28.9776Z" fill="#0071E3"/>
</svg>
