<svg width="25" height="19" viewBox="0 0 25 19" fill="none" xmlns="http://www.w3.org/2000/svg">
<g clip-path="url(#clip0_113_6752)">
<path d="M4.54554 18.8939V17.6365C4.55295 17.5307 4.5374 17.4245 4.49991 17.325C4.46243 17.2255 4.40387 17.1349 4.32812 17.0594C4.25237 16.9838 4.16115 16.9249 4.06052 16.8867C3.95989 16.8484 3.85214 16.8316 3.74441 16.8374C3.60346 16.8286 3.4627 16.8572 3.33679 16.9201C3.21088 16.983 3.10442 17.0779 3.0285 17.1951C2.95901 17.0811 2.8595 16.9877 2.74048 16.9247C2.62147 16.8617 2.48737 16.8316 2.35236 16.8374C2.2401 16.8365 2.12937 16.8631 2.03018 16.9148C1.93098 16.9665 1.84644 17.0417 1.78418 17.1336V16.8877H1.28418V18.8939H1.73304V17.7762C1.72373 17.7077 1.72991 17.638 1.75116 17.5721C1.77241 17.5062 1.8082 17.4457 1.85597 17.395C1.90374 17.3443 1.96231 17.3046 2.02749 17.2787C2.09267 17.2528 2.16286 17.2415 2.23304 17.2454C2.5285 17.2454 2.67623 17.4298 2.67623 17.7707V18.8883H3.12509V17.7707C3.11588 17.7026 3.12196 17.6334 3.14288 17.5679C3.16381 17.5025 3.19908 17.4423 3.24621 17.3917C3.29334 17.3411 3.35119 17.3012 3.41566 17.275C3.48014 17.2487 3.54969 17.2367 3.61941 17.2398C3.92623 17.2398 4.06827 17.4242 4.06827 17.7651V18.8827L4.54554 18.8939ZM11.1705 16.8877H10.4149V16.2786H9.97168V16.8877H9.55691V17.2845H9.97168V18.2009C9.97168 18.6648 10.1535 18.9442 10.6762 18.9442C10.8768 18.9458 11.0738 18.8916 11.2444 18.7877L11.1024 18.4412C10.984 18.5119 10.8487 18.5504 10.7103 18.553C10.4887 18.553 10.4149 18.4189 10.4149 18.2177V17.2845H11.1421L11.1705 16.8877ZM14.9546 16.8374C14.8459 16.8342 14.7382 16.8601 14.6432 16.9122C14.5481 16.9644 14.4692 17.0409 14.4149 17.1336V16.8877H13.9774V18.8939H14.4205V17.7762C14.4205 17.4409 14.5626 17.2565 14.8524 17.2565C14.9475 17.2569 15.0417 17.2739 15.1308 17.3068L15.2671 16.8989C15.1671 16.8624 15.0613 16.8435 14.9546 16.843V16.8374ZM9.23304 17.0498C8.98342 16.9011 8.69513 16.8273 8.4035 16.8374C7.88645 16.8374 7.55691 17.0833 7.55691 17.4801C7.55691 17.8768 7.80123 18.0054 8.26145 18.0724H8.466C8.71032 18.1059 8.82395 18.1674 8.82395 18.2792C8.82395 18.3909 8.66486 18.5251 8.36373 18.5251C8.11852 18.5325 7.87805 18.4576 7.68191 18.3127L7.47168 18.6536C7.73035 18.8334 8.04145 18.9256 8.35804 18.9162C8.92623 18.9162 9.28418 18.6424 9.28418 18.2624C9.28418 17.8824 9.01714 17.7036 8.57395 17.6589H8.36373C8.17623 17.6589 8.02282 17.5974 8.02282 17.4633C8.02282 17.3292 8.16486 17.2286 8.40918 17.2286C8.63299 17.2311 8.8523 17.2908 9.04554 17.4018L9.23304 17.0498ZM21.1137 16.8374C21.0002 16.8289 20.8866 16.8523 20.7861 16.9047C20.6855 16.9571 20.6021 17.0365 20.5455 17.1336V16.8877H20.108V18.8939H20.5512V17.7762C20.5512 17.4409 20.6933 17.2565 20.983 17.2565C21.0781 17.2569 21.1724 17.2739 21.2615 17.3068L21.3978 16.8989C21.2978 16.8624 21.192 16.8435 21.0853 16.843L21.1137 16.8374ZM15.3694 17.8824C15.3626 18.026 15.3868 18.1694 15.4405 18.3032C15.4941 18.4369 15.576 18.5579 15.6807 18.6582C15.7854 18.7586 15.9106 18.8359 16.0479 18.8852C16.1852 18.9345 16.3316 18.9546 16.4774 18.9442C16.7437 18.9574 17.0053 18.8716 17.2103 18.7039L16.9944 18.3518C16.8407 18.4667 16.6533 18.5294 16.4603 18.5307C16.3743 18.5332 16.2888 18.518 16.2092 18.486C16.1295 18.4539 16.0577 18.4058 15.9982 18.3447C15.9387 18.2835 15.893 18.2108 15.864 18.1312C15.8349 18.0515 15.8232 17.9668 15.8296 17.8824C15.8233 17.8 15.8345 17.7172 15.8626 17.6393C15.8908 17.5614 15.9352 17.4902 15.993 17.4302C16.0508 17.3702 16.1207 17.3227 16.1982 17.2909C16.2758 17.2591 16.3593 17.2436 16.4433 17.2454C16.6363 17.2466 16.8237 17.3093 16.9774 17.4242L17.1933 17.0721C16.9919 16.9104 16.7372 16.8269 16.4774 16.8374C16.3331 16.8272 16.1882 16.8469 16.0521 16.8952C15.916 16.9434 15.7917 17.0193 15.6873 17.1178C15.5829 17.2163 15.5006 17.3352 15.4459 17.4669C15.3911 17.5986 15.3651 17.7402 15.3694 17.8824ZM19.5228 17.8824V16.8877H19.0796V17.1336C19.0051 17.0367 18.9077 16.9591 18.7958 16.9075C18.684 16.8559 18.561 16.8318 18.4376 16.8374C18.167 16.8568 17.9139 16.9762 17.7292 17.1716C17.5445 17.367 17.4418 17.624 17.4418 17.8908C17.4418 18.1576 17.5445 18.4146 17.7292 18.61C17.9139 18.8054 18.167 18.9248 18.4376 18.9442C18.5608 18.9484 18.6833 18.9237 18.7949 18.8722C18.9065 18.8207 19.0041 18.7439 19.0796 18.648V18.8939H19.5228V17.8824ZM17.8751 17.8824C17.8818 17.7636 17.9237 17.6493 17.9956 17.5536C18.0676 17.458 18.1665 17.3851 18.2801 17.3441C18.3937 17.3031 18.517 17.2957 18.6348 17.3229C18.7526 17.3501 18.8597 17.4106 18.943 17.4969C19.0262 17.5833 19.0819 17.6918 19.1032 17.8089C19.1244 17.9261 19.1103 18.0468 19.0626 18.1561C19.0149 18.2655 18.9357 18.3587 18.8347 18.4243C18.7337 18.4898 18.6154 18.5249 18.4944 18.5251C18.4096 18.5269 18.3254 18.5112 18.2472 18.4791C18.169 18.447 18.0984 18.3991 18.0401 18.3386C17.9818 18.2781 17.937 18.2062 17.9085 18.1277C17.8801 18.0491 17.8687 17.9656 17.8751 17.8824ZM12.5001 16.8374C12.3641 16.8379 12.2296 16.8658 12.1049 16.9194C11.9803 16.973 11.8682 17.0512 11.7755 17.1492C11.6828 17.2471 11.6116 17.3627 11.5662 17.4889C11.5207 17.615 11.5021 17.7489 11.5115 17.8824C11.5018 18.0207 11.5218 18.1595 11.5702 18.2896C11.6186 18.4198 11.6942 18.5386 11.7923 18.6382C11.8903 18.7378 12.0085 18.816 12.1393 18.8677C12.27 18.9195 12.4104 18.9436 12.5512 18.9386C12.856 18.9489 13.1537 18.8473 13.3865 18.6536L13.1705 18.3351C13.0086 18.4621 12.8094 18.5346 12.6024 18.5418C12.4561 18.5529 12.3111 18.5079 12.1978 18.4163C12.0845 18.3246 12.0116 18.1934 11.9944 18.0501H13.5058C13.5088 17.9942 13.5088 17.9383 13.5058 17.8824C13.5188 17.7467 13.5023 17.6099 13.4571 17.4811C13.412 17.3522 13.3394 17.2343 13.2441 17.1354C13.1489 17.0364 13.0332 16.9586 12.9049 16.9072C12.7766 16.8558 12.6385 16.832 12.5001 16.8374ZM12.5001 17.2286C12.5662 17.2271 12.632 17.2386 12.6936 17.2623C12.7552 17.2859 12.8114 17.3214 12.859 17.3667C12.9066 17.4119 12.9445 17.4659 12.9707 17.5257C12.9969 17.5854 13.0107 17.6497 13.0115 17.7148H11.9717C11.976 17.646 11.9942 17.5787 12.0252 17.5169C12.0562 17.455 12.0994 17.3999 12.1523 17.3547C12.2051 17.3094 12.2666 17.275 12.3332 17.2533C12.3997 17.2317 12.47 17.2233 12.5399 17.2286H12.5001ZM23.6365 17.8824V16.083H23.1933V17.1336C23.1187 17.0367 23.0213 16.9591 22.9095 16.9075C22.7976 16.8559 22.6746 16.8318 22.5512 16.8374C22.2807 16.8568 22.0276 16.9762 21.8428 17.1716C21.6581 17.367 21.5554 17.624 21.5554 17.8908C21.5554 18.1576 21.6581 18.4146 21.8428 18.61C22.0276 18.8054 22.2807 18.9248 22.5512 18.9442C22.6744 18.9484 22.7969 18.9237 22.9085 18.8722C23.0202 18.8207 23.1178 18.7439 23.1933 18.648V18.8939H23.6365V17.8824ZM21.9887 17.8824C21.9954 17.7636 22.0373 17.6493 22.1093 17.5536C22.1812 17.458 22.2801 17.3851 22.3937 17.3441C22.5073 17.3031 22.6306 17.2957 22.7484 17.3229C22.8662 17.3501 22.9734 17.4106 23.0566 17.4969C23.1398 17.5833 23.1955 17.6918 23.2168 17.8089C23.2381 17.9261 23.224 18.0468 23.1762 18.1561C23.1285 18.2655 23.0493 18.3587 22.9483 18.4243C22.8473 18.4898 22.729 18.5249 22.608 18.5251C22.5233 18.5269 22.4391 18.5112 22.3608 18.4791C22.2826 18.447 22.212 18.3991 22.1537 18.3386C22.0954 18.2781 22.0506 18.2062 22.0222 18.1277C21.9938 18.0491 21.9824 17.9656 21.9887 17.8824ZM7.01713 17.8824V16.8877H6.57395V17.1336C6.49819 17.0366 6.39974 16.959 6.28697 16.9075C6.17421 16.8559 6.05046 16.8319 5.92623 16.8374C5.65565 16.8568 5.40257 16.9762 5.21784 17.1716C5.03311 17.367 4.93042 17.624 4.93042 17.8908C4.93042 18.1576 5.03311 18.4146 5.21784 18.61C5.40257 18.8054 5.65565 18.9248 5.92623 18.9442C6.05026 18.9483 6.17354 18.9237 6.28608 18.8722C6.39862 18.8208 6.49724 18.744 6.57395 18.648V18.8939H7.01713V17.8824ZM5.36373 17.8824C5.37039 17.7636 5.41229 17.6493 5.48426 17.5536C5.55624 17.458 5.65512 17.3851 5.76871 17.3441C5.8823 17.3031 6.00561 17.2957 6.12342 17.3229C6.24122 17.3501 6.34836 17.4106 6.4316 17.4969C6.51483 17.5833 6.57052 17.6918 6.59179 17.8089C6.61305 17.9261 6.59895 18.0468 6.55124 18.1561C6.50353 18.2655 6.42429 18.3587 6.32331 18.4243C6.22233 18.4898 6.10404 18.5249 5.98304 18.5251C5.89828 18.5269 5.81408 18.5112 5.73583 18.4791C5.65759 18.447 5.58704 18.3991 5.52872 18.3386C5.4704 18.2781 5.42559 18.2062 5.39718 18.1277C5.36876 18.0491 5.35737 17.9656 5.36373 17.8824ZM24.3751 18.6033C24.4013 18.5975 24.4284 18.5975 24.4546 18.6033C24.4808 18.6094 24.5045 18.6231 24.5228 18.6424C24.5424 18.6615 24.5579 18.6843 24.5683 18.7095C24.5743 18.7333 24.5743 18.7583 24.5683 18.7821C24.5741 18.8079 24.5741 18.8346 24.5683 18.8604C24.5565 18.883 24.5411 18.9038 24.5228 18.9218C24.5144 18.9406 24.502 18.9574 24.4862 18.9709C24.4705 18.9844 24.452 18.9944 24.4319 19.0001C24.3937 19.0153 24.3519 19.0192 24.3114 19.0113C24.271 19.0033 24.2339 18.9839 24.2046 18.9554C24.1863 18.9385 24.1726 18.9174 24.1649 18.8939C24.159 18.8681 24.159 18.8414 24.1649 18.8157C24.1591 18.7918 24.1591 18.7669 24.1649 18.743C24.1711 18.7173 24.1849 18.694 24.2046 18.6759C24.2238 18.6577 24.2472 18.6442 24.2728 18.6368C24.3027 18.6157 24.3383 18.604 24.3751 18.6033ZM24.3751 18.9554H24.4376L24.4887 18.9218L24.5228 18.8715C24.526 18.8512 24.526 18.8304 24.5228 18.8101C24.5255 18.7915 24.5255 18.7727 24.5228 18.7542C24.5142 18.7358 24.5027 18.7188 24.4887 18.7039C24.4745 18.689 24.457 18.6776 24.4376 18.6704C24.4172 18.6646 24.3955 18.6646 24.3751 18.6704C24.3546 18.6652 24.3331 18.6652 24.3126 18.6704C24.2932 18.6776 24.2757 18.689 24.2615 18.7039C24.2475 18.7188 24.236 18.7358 24.2274 18.7542C24.2247 18.7727 24.2247 18.7915 24.2274 18.8101C24.2242 18.8304 24.2242 18.8512 24.2274 18.8715C24.236 18.8899 24.2475 18.9069 24.2615 18.9218L24.3126 18.9554H24.3751ZM24.3751 18.7095C24.3841 18.7058 24.3937 18.7039 24.4035 18.7039C24.4133 18.7039 24.4229 18.7058 24.4319 18.7095C24.4349 18.7156 24.4365 18.7223 24.4365 18.729C24.4365 18.7358 24.4349 18.7425 24.4319 18.7486C24.4346 18.7548 24.4359 18.7614 24.4359 18.7682C24.4359 18.7749 24.4346 18.7815 24.4319 18.7877C24.4173 18.7933 24.4011 18.7933 24.3865 18.7877L24.449 18.8604H24.4319L24.3751 18.7877V18.8604H24.3353V18.6759L24.3751 18.7095ZM24.3296 18.743V18.7933H24.4319H24.358L24.3296 18.743Z" fill="#494949"/>
<path d="M15.7735 1.61475H9.05762V13.4842H15.7735V1.61475Z" fill="#7A7A7A"/>
<path d="M9.48339 7.54971C9.48219 6.40653 9.74554 5.27808 10.2535 4.24985C10.7615 3.22162 11.5007 2.32058 12.4152 1.615C11.454 0.871211 10.3258 0.364278 9.1249 0.136492C7.92396 -0.0912937 6.68505 -0.0333289 5.51153 0.305551C4.338 0.644431 3.26388 1.2544 2.37877 2.08457C1.49366 2.91475 0.82323 3.94106 0.4234 5.07788C0.0235704 6.21471 -0.0940624 7.42909 0.0803149 8.61972C0.254692 9.81035 0.716024 10.9427 1.42582 11.9223C2.13562 12.9019 3.07331 13.7004 4.16067 14.2512C5.24802 14.8019 6.45351 15.0889 7.67657 15.0882C9.39555 15.0933 11.0657 14.526 12.4152 13.4788C11.5021 12.7733 10.7638 11.873 10.2559 10.8459C9.74802 9.81887 9.48388 8.6918 9.48339 7.54971Z" fill="#494949"/>
<path d="M24.1026 12.2268V11.981H24.1992V11.9307H23.9492V11.981H24.0458V12.2268H24.1026ZM24.5969 12.2268V11.9307H24.5174L24.4265 12.1318L24.3356 11.9307H24.2617V12.2268H24.3129V12.0033L24.3981 12.1933H24.4322L24.5174 12.0033V12.2268H24.5969Z" fill="black"/>
<path d="M24.8355 7.54985C24.8332 8.9656 24.4266 10.3522 23.6619 11.5517C22.8972 12.7511 21.8052 13.7151 20.5105 14.3338C19.2157 14.9524 17.7703 15.2009 16.339 15.0507C14.9076 14.9006 13.548 14.3579 12.415 13.4846C13.3285 12.7781 14.067 11.8769 14.5748 10.8488C15.0826 9.82079 15.3464 8.69278 15.3464 7.54985C15.3464 6.40692 15.0826 5.27891 14.5748 4.25088C14.067 3.22284 13.3285 2.32161 12.415 1.61515C13.5474 0.73957 14.9073 0.195001 16.3394 0.0436836C17.7716 -0.107633 19.2181 0.140408 20.5137 0.759455C21.8092 1.3785 22.9016 2.34358 23.6658 3.54436C24.4301 4.74515 24.8354 6.1332 24.8355 7.54985Z" fill="#B8B8B8"/>
</g>
<defs>
<clipPath id="clip0_113_6752">
<rect width="25" height="19" fill="white"/>
</clipPath>
</defs>
</svg>
