<svg width="30" height="30" viewBox="0 0 30 30" fill="none" xmlns="http://www.w3.org/2000/svg">
<path d="M20.8174 18.0041C22.5729 18.0041 24.0007 16.576 24.0007 14.8208V5.18363C24.0007 3.42828 22.5729 2 20.8174 2H3.18282C1.42777 2 0 3.42828 0 5.18363V14.8208C0 16.576 1.42777 18.0041 3.18282 18.0041H5.49927V21.3362C5.49927 21.7414 5.74331 22.1066 6.11755 22.2616C6.24159 22.3129 6.3717 22.3377 6.50058 22.3377C6.76119 22.3377 7.01745 22.236 7.20907 22.0444L11.2485 18.0041H20.8174Z" fill="white"/>
<path d="M27.2136 10.3342H25.6031V14.8209C25.6031 17.4598 23.4563 19.6065 20.8175 19.6065H11.9123L10.0399 21.4794C10.2656 22.7913 11.4103 23.7928 12.7855 23.7928H20.5392L23.7908 27.0449C23.9823 27.2365 24.2387 27.3383 24.4993 27.3383C24.6282 27.3383 24.7583 27.3132 24.8823 27.2619C25.2565 27.1069 25.5005 26.7418 25.5005 26.3367V23.7927H27.2137C28.7502 23.7927 30.0001 22.5424 30.0001 21.0057V13.1208C30 11.5843 28.7501 10.3342 27.2136 10.3342Z" fill="white"/>
</svg>
