<svg width="38" height="11" viewBox="0 0 38 11" fill="none" xmlns="http://www.w3.org/2000/svg">
<g clip-path="url(#clip0_113_6742)">
<path d="M34.0196 -4.74067e-05H26.748C27.1377 2.43613 29.4853 4.71378 32.0648 4.71378H37.8614C37.9282 4.4574 37.9553 4.19225 37.9419 3.9276C37.948 3.40903 37.8506 2.89448 37.6555 2.41435C37.4604 1.93422 37.1715 1.49822 36.8059 1.13212C36.4402 0.766006 36.0053 0.477199 35.5268 0.282747C35.0482 0.0882946 34.5357 -0.00786255 34.0196 -4.74067e-05Z" fill="#494949"/>
<path d="M27.373 5.1084V10.9999H30.8929V7.8584H34.0198C34.8447 7.85437 35.6467 7.58527 36.3084 7.09046C36.9701 6.59565 37.4569 5.9011 37.6975 5.1084H27.373Z" fill="#494949"/>
<path d="M14.8584 0V11H17.9886C18.236 10.986 18.4753 10.9058 18.6814 10.7675C18.8875 10.6293 19.0531 10.4381 19.1608 10.2138C21.2733 5.97235 21.8981 4.71382 21.8981 4.71382H22.2877V11H25.8076V0H22.6806C22.4387 0.0331728 22.2074 0.12119 22.0043 0.257393C21.8012 0.393597 21.6317 0.574418 21.5084 0.786177L18.7711 6.28618H18.3782V0H14.8584Z" fill="#494949"/>
<path d="M0 11V0H3.51983C3.51983 0 4.53746 0 5.08492 1.57235C6.4922 5.73618 6.64678 6.28618 6.64678 6.28618C6.64678 6.28618 6.96881 5.26382 8.21186 1.57235C8.75932 0 9.77695 0 9.77695 0H13.2968V11H9.77695V5.10853H9.38407L7.42932 11H5.86424L3.90949 5.10853H3.51983V11H0Z" fill="#494949"/>
</g>
<defs>
<clipPath id="clip0_113_6742">
<rect width="38" height="11" fill="white"/>
</clipPath>
</defs>
</svg>
