<svg width="50" height="13" viewBox="0 0 50 13" fill="none" xmlns="http://www.w3.org/2000/svg">
<path d="M0.00449314 0V10.7124C-0.0130842 10.9513 0.0210431 11.1913 0.104551 11.4159C0.188059 11.6404 0.318986 11.8444 0.488416 12.0138C0.657847 12.1833 0.8618 12.3142 1.08639 12.3977C1.31098 12.4812 1.55092 12.5153 1.78989 12.4978H48.2101C48.4491 12.5153 48.689 12.4812 48.9136 12.3977C49.1382 12.3142 49.3422 12.1833 49.5116 12.0138C49.681 11.8444 49.8119 11.6404 49.8955 11.4159C49.979 11.1913 50.0131 10.9513 49.9955 10.7124V0H0.00449314ZM41.9612 9.73753C41.6342 9.72527 41.318 9.61705 41.0521 9.42637C40.7861 9.23569 40.5821 8.97096 40.4656 8.66518C40.349 8.35939 40.325 8.02606 40.3965 7.70672C40.468 7.38738 40.6319 7.09614 40.8678 6.86929C41.1036 6.64243 41.401 6.48998 41.7229 6.43095C42.0448 6.37191 42.3769 6.40889 42.6779 6.53728C42.979 6.66566 43.2355 6.87978 43.4157 7.15296C43.5959 7.42614 43.6918 7.7463 43.6913 8.07355C43.6873 8.29652 43.6394 8.51652 43.5503 8.72093C43.4611 8.92535 43.3325 9.11015 43.1717 9.26474C43.011 9.41934 42.8214 9.54068 42.6136 9.62181C42.4059 9.70294 42.1842 9.74227 41.9612 9.73753Z" fill="#F5F5F7"/>
</svg>
