<svg width="30" height="30" viewBox="0 0 30 30" fill="none" xmlns="http://www.w3.org/2000/svg">
<path d="M14.8495 15.9494C18.6123 15.9494 21.6628 12.3789 21.6628 7.97468C21.6628 1.86704 18.6124 0 14.8495 0C11.0865 0 8.03613 1.86704 8.03613 7.97468C8.03613 12.3789 11.0866 15.9494 14.8495 15.9494Z" fill="#0071E3"/>
<path d="M29.5805 28.0672L26.1432 20.3238C26.0168 20.039 25.7976 19.8059 25.5213 19.662L20.0477 16.8128C19.7171 16.6407 19.3311 16.6102 18.9777 16.7282C18.6243 16.8461 18.3339 17.1023 18.1729 17.4383L15.8469 22.2924L16.1398 19.652C16.1489 19.5694 16.1278 19.4862 16.0803 19.4179L15.1316 18.054C15.1283 18.0494 15.1245 18.045 15.121 18.0406L15.9415 17.4177C16.0122 17.364 16.0538 17.2804 16.0538 17.1915C16.0538 16.8591 15.7833 16.5886 15.4509 16.5886H14.2479C13.9156 16.5886 13.6451 16.8591 13.6451 17.1915C13.6451 17.2804 13.6866 17.364 13.7574 17.4177L14.5778 18.0406C14.5743 18.045 14.5705 18.0494 14.5672 18.054L13.6185 19.4179C13.571 19.4862 13.5498 19.5694 13.559 19.652L13.8519 22.2924L11.5259 17.4383C11.3649 17.1023 11.0745 16.8461 10.7211 16.7282C10.3677 16.6102 9.98156 16.6408 9.65109 16.8128L4.17744 19.662C3.90121 19.8059 3.68197 20.039 3.55562 20.3238L0.118253 28.0672C-0.0705269 28.4926 -0.0314097 28.9844 0.222199 29.3747C0.475808 29.7647 0.909603 30.0001 1.37495 30.0001H28.3239C28.7892 30.0001 29.223 29.7647 29.4766 29.3745C29.7302 28.9844 29.7693 28.4926 29.5805 28.0672Z" fill="#0071E3"/>
</svg>
