<svg width="50" height="58" viewBox="0 0 50 58" fill="none" xmlns="http://www.w3.org/2000/svg">
<g clip-path="url(#clip0_2_2473)" filter="url(#filter0_d_2_2473)">
<path d="M44.5823 4.98493C44.6053 4.30894 44.557 3.63241 44.4381 2.96656C44.3051 2.30255 43.9916 1.68807 43.532 1.19075C43.0708 0.702275 42.4801 0.355288 41.8289 0.190421C41.1785 0.0441336 40.5121 -0.0183064 39.8458 0.00462248C39.7232 0.00406703 39.5995 0.00378941 39.4746 0.00378941H25.9504H25.5902C25.3496 0.00378941 25.0961 0.00472667 24.8794 0.0101423C24.5217 0.0151509 24.1647 0.0449038 23.8112 0.0991879C23.4758 0.151745 23.1482 0.245492 22.8358 0.378302C22.4895 0.527621 22.1698 0.732267 21.8891 0.984228C21.3513 1.47302 20.9739 2.11315 20.8067 2.82044C20.7041 3.26308 20.6488 3.71535 20.6418 4.16966C20.6358 4.3438 20.6313 4.51731 20.6305 4.69102C20.6285 4.95983 20.6285 5.22644 20.6285 5.49525V45.0135C20.6053 45.6894 20.6536 46.3659 20.7726 47.0317C20.9055 47.6958 21.219 48.3103 21.6786 48.8076C21.7283 48.8605 21.784 48.9037 21.8361 48.9527C22.0502 49.1562 22.2897 49.3313 22.5486 49.4734C22.8119 49.6179 23.0916 49.7302 23.3818 49.8079C23.7269 49.8951 24.0798 49.9485 24.4353 49.9674C24.7444 49.9877 25.0551 49.9924 25.3648 49.9937C25.5579 49.9945 25.7561 49.9944 25.951 49.9937H39.6819C40.3613 50.0194 41.0415 49.9669 41.709 49.8374C42.3787 49.6903 42.9918 49.3536 43.4753 48.8674C43.956 48.371 44.2865 47.7488 44.4287 47.0725C44.5559 46.394 44.6074 45.7034 44.5823 45.0135V5.49525C44.5823 5.32444 44.5823 5.1525 44.5823 4.98493ZM30.0351 1.51298C30.0344 1.61673 29.9954 1.71657 29.9255 1.79323C29.8556 1.86989 29.7598 1.91794 29.6565 1.92811C29.5773 1.93384 29.4981 1.9175 29.4276 1.88092C29.3571 1.84433 29.2982 1.78893 29.2573 1.72086C29.2225 1.65694 29.2043 1.58533 29.2043 1.51256C29.2043 1.4398 29.2225 1.36819 29.2573 1.30427C29.2982 1.23626 29.3572 1.18092 29.4277 1.14443C29.4981 1.10793 29.5773 1.0917 29.6565 1.09754C29.7598 1.10769 29.8557 1.15578 29.9256 1.23251C29.9955 1.30924 30.0345 1.40917 30.0351 1.51298ZM30.8349 0.613049C30.8349 0.576366 30.8495 0.541192 30.8755 0.515244C30.9014 0.489296 30.9365 0.474693 30.9732 0.474637H34.1856C34.2223 0.474665 34.2575 0.48926 34.2834 0.515214C34.3094 0.541168 34.3239 0.576358 34.3239 0.613049V0.634711C34.3239 0.671384 34.3093 0.706547 34.2834 0.732479C34.2575 0.75841 34.2223 0.772991 34.1856 0.773018H30.9735C30.9554 0.773045 30.9373 0.769489 30.9205 0.762552C30.9037 0.755615 30.8884 0.745433 30.8756 0.732589C30.8627 0.719745 30.8525 0.704489 30.8455 0.687695C30.8385 0.670901 30.8349 0.652896 30.8349 0.634711V0.613049ZM43.5408 5.41016V20.9593V45.0353C43.5638 45.6403 43.5211 46.246 43.4134 46.8418C43.3147 47.3296 43.0787 47.7791 42.7331 48.1372C42.3878 48.4837 41.9492 48.7222 41.4707 48.8237C40.8811 48.9334 40.2811 48.9767 39.6819 48.9528H26.914C26.4881 48.9528 25.7877 48.9533 25.369 48.9528C25.0228 48.9514 24.7099 48.9444 24.4154 48.9216C24.1567 48.905 23.9 48.865 23.6486 48.802C23.1862 48.6865 22.7664 48.4416 22.4382 48.096C22.1074 47.7362 21.8832 47.2915 21.7906 46.8116C21.6884 46.218 21.648 45.6154 21.67 45.0135V5.49525C21.67 5.23061 21.6683 4.95504 21.6756 4.69134C21.6767 4.51491 21.6794 4.34005 21.686 4.16987C21.692 3.80129 21.7359 3.43431 21.8173 3.07477C21.9346 2.5685 22.2026 2.10967 22.586 1.75877C22.7829 1.58207 23.0073 1.43863 23.2503 1.33406C23.4845 1.23503 23.7301 1.16538 23.9814 1.1267C24.2875 1.08003 24.5965 1.05483 24.906 1.0513C25.0973 1.04651 25.3192 1.04599 25.533 1.04578H27.8555C27.9184 1.04297 27.9815 1.04628 28.0438 1.05567C28.1052 1.06497 28.1624 1.09259 28.2078 1.13493C28.254 1.17745 28.2835 1.235 28.2911 1.29729C28.3029 1.37228 28.312 1.62109 28.3383 1.76845C28.3622 1.90663 28.4098 2.03964 28.479 2.16161C28.5896 2.35488 28.7493 2.51557 28.9418 2.62746C29.0919 2.71266 29.2576 2.76678 29.429 2.78659C29.6021 2.80366 29.776 2.80915 29.9498 2.80305H35.2627C35.4365 2.80915 35.6104 2.80366 35.7835 2.78659C35.9549 2.76677 36.1206 2.71265 36.2707 2.62746C36.4632 2.51557 36.6229 2.35489 36.7336 2.16161C36.8028 2.03964 36.8503 1.90663 36.8742 1.76845C36.8931 1.62828 36.904 1.48714 36.9067 1.34572C36.9059 1.30547 36.9143 1.26557 36.9312 1.22904C36.9481 1.19252 36.9731 1.16033 37.0044 1.13493C37.0495 1.09284 37.1061 1.06523 37.167 1.05567C37.2293 1.04637 37.2923 1.04312 37.3551 1.04599H39.6378H39.8416C40.4193 1.0235 40.9975 1.07424 41.5625 1.197C42.0248 1.31257 42.4446 1.5575 42.7728 1.90312C43.1036 2.26286 43.3278 2.70756 43.4202 3.18745C43.5225 3.78146 43.5629 4.38446 43.5408 4.9868V5.41016ZM20.9189 49.5201C20.905 49.5053 20.8945 49.4882 20.8809 49.4733C20.7323 49.31 20.596 49.136 20.473 48.9526H9.86464C9.73852 48.9526 9.46482 48.9526 9.33526 48.9526C8.81601 48.9731 8.29626 48.9276 7.78847 48.8172C7.38251 48.7151 7.01417 48.4991 6.7268 48.1947C6.43485 47.8746 6.23736 47.4798 6.15628 47.0542C6.06439 46.5149 6.0281 45.9676 6.04797 45.4209V9.21193C6.04797 9.0955 6.04797 8.84669 6.04797 8.72734C6.02365 8.15133 6.06788 7.57448 6.17971 7.00892C6.28262 6.56075 6.51859 6.15416 6.85667 5.84247C7.02897 5.68698 7.22547 5.56063 7.43843 5.46838C7.64522 5.3806 7.86212 5.31888 8.08414 5.28466C8.35919 5.24248 8.63688 5.21975 8.91513 5.21665C9.10468 5.21186 9.32703 5.21113 9.53824 5.21113H9.71071H9.86599H11.8976C11.9549 5.20855 12.0124 5.21151 12.0692 5.21999C12.1257 5.22715 12.1783 5.25258 12.219 5.2924C12.2597 5.33222 12.2863 5.38425 12.2947 5.44057C12.3045 5.49724 12.309 5.5547 12.3082 5.6122C12.3083 5.74121 12.3182 5.87003 12.3378 5.99755C12.3596 6.12377 12.403 6.24529 12.4661 6.35675C12.5672 6.53319 12.7129 6.67987 12.8887 6.78198C13.0258 6.85972 13.1771 6.90909 13.3336 6.92716C13.4913 6.9428 13.6499 6.94788 13.8084 6.94237H19.1169C19.2738 6.94773 19.4308 6.94286 19.5871 6.92779V5.49525C19.5871 5.22936 19.5864 4.95785 19.5892 4.69113C19.5901 4.52064 19.5943 4.34744 19.6002 4.17039H9.86599L9.53824 4.16966C9.31828 4.16966 9.08645 4.1705 8.88816 4.1755C8.56151 4.18006 8.23557 4.20738 7.91272 4.25725C7.60643 4.30549 7.30732 4.39159 7.02226 4.51356C6.70578 4.65075 6.4138 4.83867 6.15784 5.06991C5.66621 5.5196 5.3218 6.10726 5.1697 6.75594C5.03476 7.40933 4.97996 8.07673 5.0065 8.74338V9.21204V45.4209C4.98545 46.0415 5.02957 46.6626 5.13814 47.2741C5.25909 47.8831 5.54515 48.4472 5.96507 48.9047C6.38536 49.3527 6.92485 49.6713 7.52008 49.8232C8.11381 49.9577 8.72237 50.0152 9.33078 49.9943C9.5071 49.9949 9.68811 49.9949 9.86599 49.9943H21.445C21.2575 49.8503 21.0815 49.6917 20.9189 49.5201ZM14.735 4.70206C14.735 4.66615 14.7492 4.63172 14.7746 4.60633C14.8 4.58094 14.8344 4.56667 14.8704 4.56667H18.0558C18.0736 4.56667 18.0912 4.57017 18.1076 4.57698C18.124 4.58378 18.139 4.59375 18.1515 4.60633C18.1641 4.6189 18.1741 4.63382 18.1809 4.65025C18.1877 4.66668 18.1912 4.68428 18.1912 4.70206V4.72289C18.1912 4.74067 18.1877 4.75828 18.1809 4.7747C18.1741 4.79113 18.1641 4.80606 18.1515 4.81863C18.139 4.8312 18.124 4.84117 18.1076 4.84798C18.0912 4.85478 18.0736 4.85828 18.0558 4.85828H14.8699C14.834 4.85828 14.7996 4.84402 14.7742 4.81863C14.7488 4.79324 14.7345 4.7588 14.7345 4.72289L14.735 4.70206ZM13.0987 5.56961C13.1406 5.49975 13.2011 5.44288 13.2734 5.40534C13.3457 5.3678 13.4271 5.35104 13.5083 5.35694C13.6146 5.36677 13.7133 5.41594 13.7852 5.49481C13.8571 5.57367 13.897 5.67654 13.897 5.78326C13.897 5.88998 13.8571 5.99286 13.7852 6.07172C13.7133 6.15058 13.6146 6.19975 13.5083 6.20959C13.427 6.21548 13.3456 6.19872 13.2732 6.16116C13.2009 6.1236 13.1403 6.06671 13.0983 5.99682C13.0628 5.93121 13.0442 5.85777 13.0443 5.78316C13.0443 5.70855 13.0631 5.63515 13.0987 5.56961Z" fill="#F5F5F7"/>
</g>
<defs>
<filter id="filter0_d_2_2473" x="-4" y="0" width="58" height="58" filterUnits="userSpaceOnUse" color-interpolation-filters="sRGB">
<feFlood flood-opacity="0" result="BackgroundImageFix"/>
<feColorMatrix in="SourceAlpha" type="matrix" values="0 0 0 0 0 0 0 0 0 0 0 0 0 0 0 0 0 0 127 0" result="hardAlpha"/>
<feOffset dy="4"/>
<feGaussianBlur stdDeviation="2"/>
<feComposite in2="hardAlpha" operator="out"/>
<feColorMatrix type="matrix" values="0 0 0 0 0 0 0 0 0 0 0 0 0 0 0 0 0 0 0.25 0"/>
<feBlend mode="normal" in2="BackgroundImageFix" result="effect1_dropShadow_2_2473"/>
<feBlend mode="normal" in="SourceGraphic" in2="effect1_dropShadow_2_2473" result="shape"/>
</filter>
<clipPath id="clip0_2_2473">
<rect width="50" height="50" fill="white"/>
</clipPath>
</defs>
</svg>
