<svg width="14" height="20" viewBox="0 0 14 20" fill="none" xmlns="http://www.w3.org/2000/svg">
<path d="M6.89155 0C3.77362 0 1.75413 1.27746 0.168624 3.5557C-0.118993 3.96898 -0.0303214 4.53562 0.37089 4.83984L2.05597 6.11754C2.46116 6.42477 3.03769 6.35293 3.35491 5.95551C4.33339 4.72969 5.05921 4.02391 6.58761 4.02391C7.78933 4.02391 9.27573 4.79731 9.27573 5.96262C9.27573 6.84355 8.54851 7.29598 7.36194 7.96121C5.97823 8.73699 4.14714 9.70246 4.14714 12.1177V12.5C4.14714 13.0178 4.56687 13.4375 5.08464 13.4375H7.91554C8.43331 13.4375 8.85304 13.0178 8.85304 12.5V12.2745C8.85304 10.6003 13.7463 10.5305 13.7463 6C13.7464 2.58813 10.2072 0 6.89155 0ZM6.50011 14.5882C5.00808 14.5882 3.79421 15.8021 3.79421 17.2941C3.79421 18.7861 5.00808 20 6.50011 20C7.99214 20 9.20601 18.7861 9.20601 17.2941C9.20601 15.8021 7.99214 14.5882 6.50011 14.5882Z" fill="#0071E3"/>
</svg>
