<svg width="50" height="50" viewBox="0 0 50 50" fill="none" xmlns="http://www.w3.org/2000/svg">
<path d="M37.3333 4.16667V3.125C37.3333 2.84873 37.2236 2.58378 37.0282 2.38843C36.8329 2.19308 36.5679 2.08333 36.2917 2.08333H7.125C6.84873 2.08333 6.58378 2.19308 6.38843 2.38843C6.19308 2.58378 6.08333 2.84873 6.08333 3.125V46.875C6.08333 47.1513 6.19308 47.4162 6.38843 47.6116C6.58378 47.8069 6.84873 47.9167 7.125 47.9167H14.4167C14.4564 48.3439 14.597 48.7556 14.827 49.1178C15.057 49.48 15.3698 49.7824 15.7396 50H7.125C6.2962 50 5.50134 49.6708 4.91529 49.0847C4.32924 48.4987 4 47.7038 4 46.875V3.125C4 2.2962 4.32924 1.50134 4.91529 0.915291C5.50134 0.32924 6.2962 0 7.125 0H36.2917C37.1205 0 37.9153 0.32924 38.5014 0.915291C39.0874 1.50134 39.4167 2.2962 39.4167 3.125V4.16667H37.3333ZM43.5833 5.20833C44.4121 5.20833 45.207 5.53757 45.793 6.12362C46.3791 6.70968 46.7083 7.50453 46.7083 8.33333V46.875C46.7083 47.7038 46.3791 48.4987 45.793 49.0847C45.207 49.6708 44.4121 50 43.5833 50H18.5833C17.7545 50 16.9597 49.6708 16.3736 49.0847C15.7876 48.4987 15.4583 47.7038 15.4583 46.875V8.33333C15.4583 7.50453 15.7876 6.70968 16.3736 6.12362C16.9597 5.53757 17.7545 5.20833 18.5833 5.20833H43.5833ZM44.625 8.33333C44.625 8.05707 44.5153 7.79211 44.3199 7.59676C44.1245 7.40141 43.8596 7.29167 43.5833 7.29167H18.5833C18.3071 7.29167 18.0421 7.40141 17.8468 7.59676C17.6514 7.79211 17.5417 8.05707 17.5417 8.33333V46.875C17.5417 47.1513 17.6514 47.4162 17.8468 47.6116C18.0421 47.8069 18.3071 47.9167 18.5833 47.9167H43.5833C43.8596 47.9167 44.1245 47.8069 44.3199 47.6116C44.5153 47.4162 44.625 47.1513 44.625 46.875V8.33333Z" fill="#F5F5F7"/>
</svg>
