<svg width="50" height="50" viewBox="0 0 50 50" fill="none" xmlns="http://www.w3.org/2000/svg">
<path d="M5.47068 28.5076C5.7941 28.5811 6.13222 28.6399 6.45565 28.684C8.42558 28.9927 10.469 29.0662 12.439 29.0368H37.5777C39.5476 29.0515 41.591 28.9927 43.561 28.684C43.8991 28.6252 44.2225 28.5664 44.5459 28.5076C46.4424 28.0959 48.2212 27.3903 49.2061 26.2289C49.7942 25.5233 50.0882 24.6559 49.9559 23.5974C49.9118 23.0682 49.8236 22.5684 49.706 22.0685C49.5884 21.5687 49.4561 21.0542 49.3385 20.5249C48.8386 18.4374 47.7654 14.0712 47.442 12.851C47.148 11.7484 46.9716 11.1898 46.7952 10.7047C45.9131 8.67591 43.5169 7.73505 40.9883 7.32342C38.7243 6.9853 35.593 7.0147 33.0792 7H16.5405C14.0267 7.0147 11.2629 6.9706 8.99892 7.32342C6.47035 7.74975 4.07408 8.67591 3.19202 10.7047C3.00091 11.1898 2.8245 11.7484 2.54518 12.851C2.22176 14.0565 1.16329 18.4374 0.648751 20.5249C0.516442 21.0542 0.384133 21.5687 0.281226 22.0685C0.163618 22.5684 0.0754122 23.0682 0.0313092 23.5974C-0.101 24.6706 0.19302 25.538 0.78106 26.2289C1.78073 27.405 3.55955 28.1106 5.47068 28.5076ZM30.0066 15.7471L31.9472 18.4668H31.9766L33.5202 15.7471H34.9609L32.7704 19.1577H31.2415L28.5512 15.7471H30.0066ZM24.0233 15.7471H25.0524V14.9532H26.449L26.4637 15.7324H27.8015L27.8162 16.2616H26.4637L26.4931 18.1875C26.4931 18.4815 26.7724 18.6285 27.3752 18.6285C27.5369 18.6285 27.7133 18.6138 27.875 18.6138L27.8897 19.1724C27.6251 19.1871 27.3458 19.2018 27.0664 19.2018C25.6257 19.2018 25.0671 18.9372 25.0671 18.261V16.2763H24.0086L24.0233 15.7471ZM19.8189 14.7327C20.2011 14.5269 20.7303 14.4093 21.289 14.3799C21.3184 14.6445 21.1272 14.9091 20.745 15.115C20.3775 15.3208 19.8189 15.4531 19.2455 15.4384C19.2308 15.1885 19.4366 14.9385 19.8189 14.7327ZM15.5556 16.1146C16.0113 15.7618 16.8051 15.5266 17.6725 15.5266C18.3193 15.5266 18.9074 15.7324 19.3043 15.7324C19.7012 15.7324 20.4069 15.4972 21.2301 15.5119C21.9505 15.5266 22.6267 15.703 23.0384 15.9823C22.3768 16.1734 21.9505 16.5115 21.9211 16.8938C21.9064 17.3201 22.4356 17.717 23.2589 17.8787C23.0972 18.1287 22.8473 18.3639 22.5385 18.5844C22.0975 18.9078 21.6124 19.2018 20.9361 19.2018C20.2452 19.2018 20.0247 18.996 19.2455 18.996C18.4664 18.996 18.2311 19.1871 17.5402 19.2018C16.8492 19.2165 16.3641 18.8637 15.9525 18.5697C15.1145 17.9375 14.5853 16.835 15.5556 16.1146ZM50 27.2874V37.4458C50 43.6643 42.6348 43.679 37.6659 43.7672H12.336C7.38181 43.6643 0.0166082 43.6496 0.0166082 37.4311V27.3021C0.0166082 27.2727 0.0460102 27.2727 0.0607112 27.2874C0.869266 28.3605 2.36877 29.3455 5.16196 29.9483C6.97018 30.3305 9.13123 30.5216 11.7774 30.5216H38.2098C40.856 30.5216 43.0317 30.3305 44.8399 29.9483C47.6478 29.3455 49.1473 28.3458 49.9412 27.258C49.9706 27.2433 50 27.258 50 27.2874Z" fill="#F5F5F7"/>
</svg>
