<svg width="30" height="19" viewBox="0 0 30 19" fill="none" xmlns="http://www.w3.org/2000/svg">
<path d="M28.8677 1.11768H1.13184V3.91179H28.8677V1.11768Z" fill="#494949"/>
<path d="M28.8677 15.0884H1.13184V17.8825H28.8677V15.0884Z" fill="#494949"/>
<path d="M12.1586 6.14714L9.27182 12.9145H7.38691L5.96616 7.48831C5.95153 7.36231 5.90497 7.24197 5.83077 7.13844C5.75657 7.0349 5.65712 6.95151 5.54163 6.89596C4.98024 6.63919 4.38902 6.45151 3.78125 6.33714L3.82653 6.14714H6.8605C7.0576 6.14717 7.24829 6.21629 7.3986 6.34217C7.5489 6.46804 7.64907 6.64251 7.68125 6.83449L8.43408 10.7463L10.285 6.14714H12.1586ZM19.5454 10.7016C19.5454 8.9189 17.0322 8.81832 17.0492 8.0192C17.0492 7.7789 17.2869 7.52184 17.802 7.46037C18.4057 7.40153 19.0142 7.50584 19.5624 7.76214L19.8737 6.32596C19.3408 6.13203 18.7775 6.03179 18.2095 6.02979C16.4435 6.02979 15.2039 6.94626 15.1926 8.26508C15.1926 9.23743 16.0812 9.77949 16.7548 10.1036C17.4284 10.4277 17.6831 10.6624 17.6831 10.9474C17.6831 11.4001 17.1171 11.6013 16.6133 11.6124C15.9746 11.6217 15.3438 11.4718 14.7794 11.1766L14.4567 12.663C15.0916 12.9 15.7648 13.0212 16.4435 13.0207C18.3171 13.0207 19.5397 12.1098 19.5454 10.7016ZM24.2039 12.9368H25.8511L24.4077 6.14714H22.8907C22.7283 6.14529 22.5691 6.19103 22.433 6.27857C22.297 6.3661 22.1903 6.4915 22.1265 6.6389L19.4548 12.8921H21.3284L21.6963 11.8807H23.9605L24.2039 12.9368ZM22.2114 10.5395L23.1511 7.99684L23.7171 10.5395H22.2114ZM14.7171 6.14714L13.2341 12.8921H11.4511L12.9228 6.14714H14.7171Z" fill="#494949"/>
<path d="M29.434 0.558824V18.4412H0.566038V0.558824H29.434ZM30 0H0V19H30V0Z" fill="#494949"/>
</svg>
