<svg width="50" height="50" viewBox="0 0 50 50" fill="none" xmlns="http://www.w3.org/2000/svg">
<path d="M39.6518 15.732H38.502C38.4742 12.9842 36.8743 10.6188 34.5594 9.47916C33.4189 8.70453 32.7418 7.62332 32.6339 6.45284L32.133 2.11404C31.9769 0.923733 31.7817 0.748041 29.9474 0.357804C29.9474 0.357804 27.1959 0 24.7338 0C22.2717 0 19.5202 0.357918 19.5202 0.357918C17.6858 0.748156 17.4907 0.923848 17.3346 2.11416L16.8337 6.45296C16.7257 7.62516 16.0741 8.70808 14.9387 9.48282C12.6075 10.6339 11 13.0283 11 15.8042V34.0507C11 36.7871 12.5613 39.1544 14.8389 40.324C16.0448 41.1231 16.6898 42.3302 16.802 43.5472L17.3028 47.886C17.4589 49.0763 17.6541 49.252 19.4885 49.6423C19.4885 49.6423 22.24 50 24.7021 50C27.1642 50 29.9157 49.6423 29.9157 49.6423C31.7501 49.252 31.9451 49.0764 32.1012 47.886L32.6022 43.5472C32.7121 42.355 33.4096 41.1632 34.589 40.3614C36.9084 39.2061 38.5057 36.8178 38.5057 34.0507V21.726H39.6518V15.732ZM37.3596 34.0507C37.3596 37.3081 34.7096 39.9581 31.4522 39.9581H18.0536C14.7961 39.9581 12.1461 37.3081 12.1461 34.0507V15.8042C12.1461 12.5467 14.7961 9.89667 18.0536 9.89667H31.4522C34.7096 9.89667 37.3596 12.5467 37.3596 15.8042V21.726V34.0507Z" fill="#F5F5F7"/>
</svg>
